Montserrat-ThinItalic.ufo
<glyph name="numbersign" format="2">
  <advance width="682"/>
  <unicode hex="0023"/>
  <outline>
    <contour>
      <point x="366" y="0" type="line"/>
      <point x="387" y="0" type="line"/>
      <point x="612" y="700" type="line"/>
      <point x="591" y="700" type="line"/>
    </contour>
    <contour>
      <point x="26" y="210" type="line"/>
      <point x="606" y="210" type="line"/>
      <point x="610" y="229" type="line"/>
      <point x="30" y="229" type="line"/>
    </contour>
    <contour>
      <point x="106" y="0" type="line"/>
      <point x="127" y="0" type="line"/>
      <point x="352" y="700" type="line"/>
      <point x="331" y="700" type="line"/>
    </contour>
    <contour>
      <point x="109" y="471" type="line"/>
      <point x="689" y="471" type="line"/>
      <point x="693" y="490" type="line"/>
      <point x="113" y="490" type="line"/>
    </contour>
  </outline>
</glyph>
<glyph name="three" format="2">
  <advance width="548"/>
  <unicode hex="0033"/>
  <outline>
    <contour>
      <point x="215" y="-3" type="curve" smooth="yes"/>
      <point x="375" y="-3"/>
      <point x="480" y="85"/>
      <point x="480" y="216" type="curve" smooth="yes"/>
      <point x="480" y="325"/>
      <point x="405" y="387"/>
      <point x="260" y="387" type="curve" smooth="yes"/>
      <point x="255" y="387" type="line"/>
      <point x="258" y="380" type="line"/>
      <point x="549" y="685" type="line"/>
      <point x="552" y="700" type="line"/>
      <point x="129" y="700" type="line"/>
      <point x="125" y="681" type="line"/>
      <point x="528" y="681" type="line"/>
      <point x="525" y="687" type="line"/>
      <point x="235" y="383" type="line"/>
      <point x="232" y="368" type="line"/>
      <point x="260" y="368" type="line" smooth="yes"/>
      <point x="396" y="368"/>
      <point x="460" y="314"/>
      <point x="460" y="216" type="curve" smooth="yes"/>
      <point x="460" y="96"/>
      <point x="366" y="16"/>
      <point x="216" y="16" type="curve" smooth="yes"/>
      <point x="109" y="16"/>
      <point x="33" y="56"/>
      <point x="2" y="109" type="curve"/>
      <point x="-15" y="96" type="line"/>
      <point x="19" y="38"/>
      <point x="105" y="-3"/>
    </contour>
  </outline>
</glyph>
<glyph name="nine" format="2">
  <advance width="592"/>
  <unicode hex="0039"/>
  <outline>
    <contour>
      <point x="322" y="703" type="curve" smooth="yes"/>
      <point x="179" y="703"/>
      <point x="82" y="621"/>
      <point x="82" y="485" type="curve" smooth="yes"/>
      <point x="82" y="363"/>
      <point x="175" y="294"/>
      <point x="302" y="294" type="curve" smooth="yes"/>
      <point x="411" y="294"/>
      <point x="528" y="352"/>
      <point x="549" y="497" type="curve"/>
      <point x="540" y="490" type="line"/>
      <point x="541" y="479"/>
      <point x="542" y="467"/>
      <point x="542" y="446" type="curve" smooth="yes"/>
      <point x="542" y="251"/>
      <point x="458" y="16"/>
      <point x="197" y="16" type="curve" smooth="yes"/>
      <point x="144" y="16"/>
      <point x="93" y="25"/>
      <point x="55" y="50" type="curve"/>
      <point x="43" y="32" type="line"/>
      <point x="85" y="6"/>
      <point x="138" y="-3"/>
      <point x="195" y="-3" type="curve" smooth="yes"/>
      <point x="469" y="-3"/>
      <point x="562" y="238"/>
      <point x="562" y="440" type="curve" smooth="yes"/>
      <point x="562" y="617"/>
      <point x="463" y="703"/>
    </contour>
    <contour>
      <point x="321" y="684" type="curve" smooth="yes"/>
      <point x="462" y="684"/>
      <point x="530" y="592"/>
      <point x="530" y="509" type="curve" smooth="yes"/>
      <point x="530" y="402"/>
      <point x="438" y="313"/>
      <point x="303" y="313" type="curve" smooth="yes"/>
      <point x="186" y="313"/>
      <point x="102" y="374"/>
      <point x="102" y="487" type="curve" smooth="yes"/>
      <point x="102" y="608"/>
      <point x="188" y="684"/>
    </contour>
  </outline>
</glyph>
<glyph name="A" format="2">
  <advance width="688"/>
  <unicode hex="0041"/>
  <anchor x="292" y="0" name="bottom"/>
  <anchor x="627" y="0" name="ogonek"/>
  <anchor x="432" y="700" name="top"/>
  <anchor x="194" y="700" name="topleft"/>
  <outline>
    <contour>
      <point x="-43" y="0" type="line"/>
      <point x="-19" y="0" type="line"/>
      <point x="435" y="684" type="line"/>
      <point x="426" y="684" type="line"/>
      <point x="606" y="0" type="line"/>
      <point x="627" y="0" type="line"/>
      <point x="442" y="700" type="line"/>
      <point x="422" y="700" type="line"/>
    </contour>
    <contour>
      <point x="106" y="211" type="line"/>
      <point x="561" y="211" type="line"/>
      <point x="555" y="230" type="line"/>
      <point x="120" y="230" type="line"/>
    </contour>
  </outline>
</glyph>
<glyph name="D" format="2">
  <advance width="826"/>
  <unicode hex="0044"/>
  <anchor x="344" y="0" name="bottom"/>
  <anchor x="219" y="356" name="center"/>
  <anchor x="479" y="699" name="top"/>
  <outline>
    <contour>
      <point x="81" y="0" type="line"/>
      <point x="357" y="0" type="line" smooth="yes"/>
      <point x="624" y="0"/>
      <point x="793" y="177"/>
      <point x="793" y="420" type="curve" smooth="yes"/>
      <point x="793" y="587"/>
      <point x="681" y="700"/>
      <point x="472" y="700" type="curve" smooth="yes"/>
      <point x="221" y="700" type="line"/>
    </contour>
    <contour>
      <point x="105" y="19" type="line"/>
      <point x="237" y="681" type="line"/>
      <point x="470" y="681" type="line" smooth="yes"/>
      <point x="673" y="681"/>
      <point x="773" y="576"/>
      <point x="773" y="420" type="curve" smooth="yes"/>
      <point x="773" y="186"/>
      <point x="612" y="19"/>
      <point x="359" y="19" type="curve" smooth="yes"/>
    </contour>
  </outline>
</glyph>
<glyph name="K" format="2">
  <advance width="693"/>
  <unicode hex="004B"/>
  <anchor x="318" y="0" name="bottom"/>
  <anchor x="458" y="700" name="top"/>
  <outline>
    <contour>
      <point x="133" y="182" type="line"/>
      <point x="353" y="369" type="line"/>
      <point x="361" y="376" type="line"/>
      <point x="742" y="700" type="line"/>
      <point x="712" y="700" type="line"/>
      <point x="140" y="213" type="line"/>
    </contour>
    <contour>
      <point x="81" y="0" type="line"/>
      <point x="101" y="0" type="line"/>
      <point x="241" y="700" type="line"/>
      <point x="221" y="700" type="line"/>
    </contour>
    <contour>
      <point x="601" y="0" type="line"/>
      <point x="625" y="0" type="line"/>
      <point x="357" y="387" type="line"/>
      <point x="340" y="377" type="line"/>
    </contour>
  </outline>
</glyph>
<glyph name="O" format="2">
  <advance width="836"/>
  <unicode hex="004F"/>
  <guideline x="1572" y="734" angle="90"/>
  <anchor x="366" y="0" name="bottom"/>
  <anchor x="435" y="350" name="center"/>
  <anchor x="417" y="0" name="ogonek"/>
  <anchor x="506" y="700" name="top"/>
  <anchor x="147" y="700" name="topleft"/>
  <anchor x="755" y="700" name="topright"/>
  <outline>
    <contour>
      <point x="386" y="-3" type="curve" smooth="yes"/>
      <point x="644" y="-3"/>
      <point x="802" y="196"/>
      <point x="802" y="420" type="curve" smooth="yes"/>
      <point x="802" y="589"/>
      <point x="691" y="703"/>
      <point x="487" y="703" type="curve" smooth="yes"/>
      <point x="229" y="703"/>
      <point x="71" y="504"/>
      <point x="71" y="280" type="curve" smooth="yes"/>
      <point x="71" y="111"/>
      <point x="182" y="-3"/>
    </contour>
    <contour>
      <point x="388" y="16" type="curve" smooth="yes"/>
      <point x="192" y="16"/>
      <point x="91" y="123"/>
      <point x="91" y="280" type="curve" smooth="yes"/>
      <point x="91" y="499"/>
      <point x="246" y="684"/>
      <point x="485" y="684" type="curve" smooth="yes"/>
      <point x="681" y="684"/>
      <point x="782" y="577"/>
      <point x="782" y="420" type="curve" smooth="yes"/>
      <point x="782" y="201"/>
      <point x="627" y="16"/>
    </contour>
  </outline>
</glyph>
<glyph name="R" format="2">
  <advance width="716"/>
  <unicode hex="0052"/>
  <anchor x="314" y="0" name="bottom"/>
  <anchor x="454" y="700" name="top"/>
  <outline>
    <contour>
      <point x="81" y="0" type="line"/>
      <point x="101" y="0" type="line"/>
      <point x="151" y="249" type="line"/>
      <point x="140" y="240" type="line"/>
      <point x="373" y="240" type="line" smooth="yes"/>
      <point x="568" y="240"/>
      <point x="690" y="334"/>
      <point x="690" y="514" type="curve" smooth="yes"/>
      <point x="690" y="633"/>
      <point x="604" y="700"/>
      <point x="456" y="700" type="curve" smooth="yes"/>
      <point x="221" y="700" type="line"/>
    </contour>
    <contour>
      <point x="580" y="0" type="line"/>
      <point x="603" y="0" type="line"/>
      <point x="459" y="254" type="line"/>
      <point x="436" y="254" type="line"/>
    </contour>
    <contour>
      <point x="151" y="251" type="line"/>
      <point x="239" y="689" type="line"/>
      <point x="228" y="681" type="line"/>
      <point x="457" y="681" type="line" smooth="yes"/>
      <point x="594" y="681"/>
      <point x="670" y="621"/>
      <point x="670" y="514" type="curve" smooth="yes"/>
      <point x="670" y="345"/>
      <point x="561" y="259"/>
      <point x="372" y="259" type="curve" smooth="yes"/>
      <point x="144" y="259" type="line"/>
    </contour>
  </outline>
</glyph>
<glyph name="U" format="2">
  <advance width="794"/>
  <unicode hex="0055"/>
  <anchor x="345" y="0" name="bottom"/>
  <anchor x="531" y="0" name="ogonek"/>
  <anchor x="485" y="700" name="top"/>
  <anchor x="760" y="700" name="topright"/>
  <outline>
    <contour>
      <point x="354" y="-3" type="curve" smooth="yes"/>
      <point x="534" y="-3"/>
      <point x="636" y="102"/>
      <point x="670" y="274" type="curve"/>
      <point x="755" y="700" type="line"/>
      <point x="735" y="700" type="line"/>
      <point x="650" y="275" type="line"/>
      <point x="618" y="118"/>
      <point x="531" y="16"/>
      <point x="358" y="16" type="curve"/>
      <point x="169" y="16"/>
      <point x="124" y="151"/>
      <point x="153" y="290" type="curve"/>
      <point x="235" y="700" type="line"/>
      <point x="215" y="700" type="line"/>
      <point x="134" y="291" type="line"/>
      <point x="100" y="132"/>
      <point x="167" y="-3"/>
    </contour>
  </outline>
</glyph>
<glyph name="t" format="2">
  <advance width="388"/>
  <unicode hex="0074"/>
  <anchor x="189" y="0" name="bottom"/>
  <anchor x="180" y="307" name="center"/>
  <anchor x="207" y="630" name="top"/>
  <anchor x="344" y="742" name="topright"/>
  <outline>
    <contour>
      <point x="200" y="-3" type="curve" smooth="yes"/>
      <point x="236" y="-3"/>
      <point x="276" y="9"/>
      <point x="304" y="34" type="curve"/>
      <point x="293" y="48" type="line"/>
      <point x="267" y="27"/>
      <point x="236" y="16"/>
      <point x="202" y="16" type="curve" smooth="yes"/>
      <point x="130" y="16"/>
      <point x="102" y="56"/>
      <point x="119" y="139" type="curve" smooth="yes"/>
      <point x="217" y="630" type="line"/>
      <point x="197" y="630" type="line"/>
      <point x="98" y="134" type="line" smooth="yes"/>
      <point x="81" y="48"/>
      <point x="117" y="-3"/>
    </contour>
    <contour>
      <point x="71" y="498" type="line"/>
      <point x="366" y="498" type="line"/>
      <point x="369" y="517" type="line"/>
      <point x="74" y="517" type="line"/>
    </contour>
  </outline>
</glyph>
<glyph name="u" format="2">
  <advance width="664"/>
  <unicode hex="0075"/>
  <anchor x="278" y="0" name="bottom"/>
  <anchor x="498" y="0" name="ogonek"/>
  <anchor x="381" y="517" name="top"/>
  <anchor x="591" y="517" name="topright"/>
  <outline>
    <contour>
      <point x="273" y="-3" type="curve" smooth="yes"/>
      <point x="381" y="-3"/>
      <point x="469" y="45"/>
      <point x="518" y="155" type="curve"/>
      <point x="508" y="150" type="line"/>
      <point x="478" y="0" type="line"/>
      <point x="498" y="0" type="line"/>
      <point x="601" y="517" type="line"/>
      <point x="581" y="517" type="line"/>
      <point x="524" y="230" type="line" smooth="yes"/>
      <point x="496" y="90"/>
      <point x="405" y="16"/>
      <point x="275" y="16" type="curve" smooth="yes"/>
      <point x="148" y="16"/>
      <point x="96" y="91"/>
      <point x="120" y="212" type="curve" smooth="yes"/>
      <point x="181" y="517" type="line"/>
      <point x="161" y="517" type="line"/>
      <point x="100" y="212" type="line" smooth="yes"/>
      <point x="75" y="86"/>
      <point x="131" y="-3"/>
    </contour>
  </outline>
</glyph>
<glyph name="x" format="2">
  <advance width="498"/>
  <unicode hex="0078"/>
  <outline>
    <contour>
      <point x="-24" y="0" type="line"/>
      <point x="3" y="0" type="line"/>
      <point x="252" y="256" type="line"/>
      <point x="245" y="256" type="line"/>
      <point x="394" y="0" type="line"/>
      <point x="418" y="0" type="line"/>
      <point x="258" y="271" type="line"/>
      <point x="256" y="260" type="line"/>
      <point x="506" y="517" type="line"/>
      <point x="480" y="517" type="line"/>
      <point x="248" y="278" type="line"/>
      <point x="255" y="276" type="line"/>
      <point x="114" y="517" type="line"/>
      <point x="91" y="517" type="line"/>
      <point x="239" y="265" type="line"/>
      <point x="241" y="271" type="line"/>
    </contour>
  </outline>
</glyph>
<glyph name="y" format="2">
  <advance width="508"/>
  <unicode hex="0079"/>
  <guideline x="574" y="277" angle="65.5217"/>
  <anchor x="290" y="0" name="bottom"/>
  <anchor x="290" y="517" name="top"/>
  <outline>
    <contour>
      <point x="-3" y="-197" type="curve" smooth="yes"/>
      <point x="57" y="-197"/>
      <point x="100" y="-173"/>
      <point x="155" y="-90" type="curve" smooth="yes"/>
      <point x="554" y="517" type="line"/>
      <point x="530" y="517" type="line"/>
      <point x="201" y="14" type="line"/>
      <point x="195" y="7" type="line"/>
      <point x="137" y="-81" type="line" smooth="yes"/>
      <point x="88" y="-156"/>
      <point x="48" y="-178"/>
      <point x="0" y="-178" type="curve" smooth="yes"/>
      <point x="-42" y="-178"/>
      <point x="-73" y="-165"/>
      <point x="-96" y="-136" type="curve"/>
      <point x="-112" y="-151" type="line"/>
      <point x="-89" y="-181"/>
      <point x="-47" y="-197"/>
    </contour>
    <contour>
      <point x="196" y="-11" type="line"/>
      <point x="209" y="14" type="line"/>
      <point x="79" y="517" type="line"/>
      <point x="58" y="517" type="line"/>
    </contour>
  </outline>
</glyph>
<glyph name="braceleft" format="2">
  <advance width="300"/>
  <unicode hex="007B"/>
  <outline>
    <contour>
      <point x="159" y="-194" type="curve" smooth="yes"/>
      <point x="184" y="-194" type="line"/>
      <point x="188" y="-175" type="line"/>
      <point x="156" y="-175" type="line" smooth="yes"/>
      <point x="112" y="-175"/>
      <point x="82" y="-150"/>
      <point x="96" y="-82" type="curve" smooth="yes"/>
      <point x="155" y="212" type="line" smooth="yes"/>
      <point x="163" y="252"/>
      <point x="150" y="268"/>
      <point x="131" y="275" type="curve"/>
      <point x="130" y="271" type="line"/>
      <point x="158" y="278"/>
      <point x="172" y="296"/>
      <point x="180" y="336" type="curve" smooth="yes"/>
      <point x="243" y="650" type="line" smooth="yes"/>
      <point x="252" y="693"/>
      <point x="281" y="723"/>
      <point x="335" y="723" type="curve" smooth="yes"/>
      <point x="367" y="723" type="line"/>
      <point x="371" y="742" type="line"/>
      <point x="346" y="742" type="line" smooth="yes"/>
      <point x="272" y="742"/>
      <point x="235" y="710"/>
      <point x="223" y="650" type="curve" smooth="yes"/>
      <point x="160" y="336" type="line" smooth="yes"/>
      <point x="153" y="299"/>
      <point x="138" y="284"/>
      <point x="105" y="284" type="curve" smooth="yes"/>
      <point x="70" y="284" type="line"/>
      <point x="66" y="265" type="line"/>
      <point x="101" y="265" type="line" smooth="yes"/>
      <point x="130" y="265"/>
      <point x="142" y="249"/>
      <point x="135" y="212" type="curve" smooth="yes"/>
      <point x="76" y="-82" type="line" smooth="yes"/>
      <point x="60" y="-162"/>
      <point x="100" y="-194"/>
    </contour>
  </outline>
</glyph>
<glyph name="bar" format="2">
  <advance width="286"/>
  <unicode hex="007C"/>
  <outline>
    <contour>
      <point x="43" y="-194" type="line"/>
      <point x="63" y="-194" type="line"/>
      <point x="250" y="742" type="line"/>
      <point x="230" y="742" type="line"/>
    </contour>
  </outline>
</glyph>
<glyph name="braceright" format="2">
  <advance width="300"/>
  <unicode hex="007D"/>
  <outline>
    <contour>
      <point x="-65" y="-194" type="line"/>
      <point x="-40" y="-194" type="line" smooth="yes"/>
      <point x="34" y="-194"/>
      <point x="71" y="-162"/>
      <point x="83" y="-102" type="curve" smooth="yes"/>
      <point x="146" y="212" type="line" smooth="yes"/>
      <point x="153" y="249"/>
      <point x="168" y="264"/>
      <point x="201" y="264" type="curve" smooth="yes"/>
      <point x="236" y="264" type="line"/>
      <point x="240" y="283" type="line"/>
      <point x="205" y="283" type="line" smooth="yes"/>
      <point x="176" y="283"/>
      <point x="164" y="299"/>
      <point x="171" y="336" type="curve" smooth="yes"/>
      <point x="230" y="630" type="line" smooth="yes"/>
      <point x="246" y="710"/>
      <point x="206" y="742"/>
      <point x="147" y="742" type="curve" smooth="yes"/>
      <point x="122" y="742" type="line"/>
      <point x="118" y="723" type="line"/>
      <point x="150" y="723" type="line" smooth="yes"/>
      <point x="194" y="723"/>
      <point x="224" y="698"/>
      <point x="210" y="630" type="curve" smooth="yes"/>
      <point x="151" y="336" type="line" smooth="yes"/>
      <point x="143" y="296"/>
      <point x="156" y="280"/>
      <point x="175" y="273" type="curve"/>
      <point x="176" y="277" type="line"/>
      <point x="148" y="270"/>
      <point x="135" y="255"/>
      <point x="126" y="212" type="curve" smooth="yes"/>
      <point x="63" y="-102" type="line" smooth="yes"/>
      <point x="54" y="-145"/>
      <point x="25" y="-175"/>
      <point x="-29" y="-175" type="curve" smooth="yes"/>
      <point x="-61" y="-175" type="line"/>
    </contour>
  </outline>
</glyph>
<glyph name="brokenbar" format="2">
  <advance width="286"/>
  <unicode hex="00A6"/>
  <outline>
    <contour>
      <point x="160" y="392" type="line"/>
      <point x="180" y="392" type="line"/>
      <point x="250" y="742" type="line"/>
      <point x="230" y="742" type="line"/>
    </contour>
    <contour>
      <point x="43" y="-194" type="line"/>
      <point x="63" y="-194" type="line"/>
      <point x="133" y="156" type="line"/>
      <point x="113" y="156" type="line"/>
    </contour>
  </outline>
</glyph>
<glyph name="eth" format="2">
  <advance width="618"/>
  <unicode hex="00F0"/>
  <outline>
    <contour>
      <point x="248" y="-3" type="curve" smooth="yes"/>
      <point x="478" y="-3"/>
      <point x="592" y="251"/>
      <point x="592" y="450" type="curve" smooth="yes"/>
      <point x="592" y="618"/>
      <point x="492" y="703"/>
      <point x="332" y="703" type="curve" smooth="yes"/>
      <point x="280" y="703"/>
      <point x="221" y="693"/>
      <point x="186" y="679" type="curve"/>
      <point x="190" y="661" type="line"/>
      <point x="227" y="675"/>
      <point x="282" y="684"/>
      <point x="333" y="684" type="curve" smooth="yes"/>
      <point x="484" y="684"/>
      <point x="572" y="606"/>
      <point x="572" y="448" type="curve" smooth="yes"/>
      <point x="572" y="371"/>
      <point x="556" y="278"/>
      <point x="514" y="205" type="curve"/>
      <point x="519" y="199" type="line"/>
      <point x="545" y="336"/>
      <point x="459" y="430"/>
      <point x="318" y="430" type="curve" smooth="yes"/>
      <point x="160" y="430"/>
      <point x="42" y="332"/>
      <point x="42" y="180" type="curve" smooth="yes"/>
      <point x="42" y="69"/>
      <point x="121" y="-3"/>
    </contour>
    <contour>
      <point x="251" y="16" type="curve" smooth="yes"/>
      <point x="131" y="16"/>
      <point x="62" y="78"/>
      <point x="62" y="181" type="curve" smooth="yes"/>
      <point x="62" y="318"/>
      <point x="167" y="411"/>
      <point x="318" y="411" type="curve" smooth="yes"/>
      <point x="434" y="411"/>
      <point x="506" y="348"/>
      <point x="506" y="246" type="curve" smooth="yes"/>
      <point x="506" y="118"/>
      <point x="377" y="16"/>
    </contour>
    <contour>
      <point x="201" y="521" type="line"/>
      <point x="599" y="684" type="line"/>
      <point x="591" y="702" type="line"/>
      <point x="194" y="539" type="line"/>
    </contour>
  </outline>
</glyph>
<glyph name="kgreenlandic" format="2">
  <advance width="557"/>
  <unicode hex="0138"/>
  <anchor x="216" y="0" name="bottom"/>
  <anchor x="319" y="517" name="top"/>
  <outline>
    <contour>
      <point x="107" y="153" type="line"/>
      <point x="297" y="299" type="line"/>
      <point x="311" y="310" type="line"/>
      <point x="580" y="517" type="line"/>
      <point x="548" y="517" type="line"/>
      <point x="109" y="178" type="line"/>
    </contour>
    <contour>
      <point x="63" y="0" type="line"/>
      <point x="83" y="0" type="line"/>
      <point x="186" y="517" type="line"/>
      <point x="166" y="517" type="line"/>
    </contour>
    <contour>
      <point x="476" y="0" type="line"/>
      <point x="500" y="0" type="line"/>
      <point x="309" y="316" type="line"/>
      <point x="293" y="304" type="line"/>
    </contour>
  </outline>
</glyph>
<glyph name="Uogonek" format="2">
  <advance width="794"/>
  <unicode hex="0172"/>
  <outline>
    <contour>
      <point x="735" y="700" type="line"/>
      <point x="654" y="294" type="line" smooth="yes"/>
      <point x="617" y="106"/>
      <point x="520" y="16"/>
      <point x="360" y="16" type="curve" smooth="yes"/>
      <point x="194" y="16"/>
      <point x="118" y="116"/>
      <point x="154" y="295" type="curve" smooth="yes"/>
      <point x="235" y="700" type="line"/>
      <point x="215" y="700" type="line"/>
      <point x="134" y="293" type="line" smooth="yes"/>
      <point x="97" y="107"/>
      <point x="183" y="-3"/>
      <point x="360" y="-3" type="curve" smooth="yes"/>
      <point x="375" y="-3"/>
      <point x="389" y="-2"/>
      <point x="400" y="-1" type="curve"/>
      <point x="367" y="1" type="line"/>
      <point x="274" y="-43"/>
      <point x="235" y="-91"/>
      <point x="235" y="-144" type="curve" smooth="yes"/>
      <point x="235" y="-187"/>
      <point x="265" y="-213"/>
      <point x="310" y="-213" type="curve" smooth="yes"/>
      <point x="340" y="-213"/>
      <point x="368" y="-204"/>
      <point x="391" y="-186" type="curve"/>
      <point x="383" y="-169" type="line"/>
      <point x="363" y="-185"/>
      <point x="337" y="-194"/>
      <point x="312" y="-194" type="curve" smooth="yes"/>
      <point x="276" y="-194"/>
      <point x="255" y="-176"/>
      <point x="255" y="-142" type="curve" smooth="yes"/>
      <point x="255" y="-83"/>
      <point x="323" y="-23"/>
      <point x="447" y="7" type="curve" smooth="yes"/>
      <point x="560" y="34"/>
      <point x="640" y="125"/>
      <point x="674" y="293" type="curve" smooth="yes"/>
      <point x="755" y="700" type="line"/>
    </contour>
  </outline>
</glyph>
<glyph name="Gstroke" format="2">
  <advance width="804"/>
  <unicode hex="01E4"/>
  <guideline x="431" y="328" angle="90"/>
  <outline>
    <contour>
      <point x="412" y="224" type="line"/>
      <point x="772" y="224" type="line"/>
      <point x="776" y="243" type="line"/>
      <point x="416" y="243" type="line"/>
    </contour>
    <component base="G"/>
  </outline>
</glyph>
<glyph name="firsttonechinese" format="2">
  <advance width="600"/>
  <unicode hex="02C9"/>
  <outline>
    <contour>
      <point x="243" y="652" type="line"/>
      <point x="515" y="652" type="line"/>
      <point x="519" y="672" type="line"/>
      <point x="247" y="672" type="line"/>
    </contour>
  </outline>
</glyph>
<glyph name="secondtonechinese" format="2">
  <advance width="600"/>
  <unicode hex="02CA"/>
  <outline>
    <contour>
      <point x="323" y="607" type="line"/>
      <point x="355" y="607" type="line"/>
      <point x="517" y="717" type="line"/>
      <point x="475" y="717" type="line"/>
    </contour>
  </outline>
</glyph>
<glyph name="fourthtonechinese" format="2">
  <advance width="600"/>
  <unicode hex="02CB"/>
  <outline>
    <contour>
      <point x="384" y="607" type="line"/>
      <point x="414" y="607" type="line"/>
      <point x="296" y="717" type="line"/>
      <point x="256" y="717" type="line"/>
    </contour>
  </outline>
</glyph>
<glyph name="tildecomb" format="2">
  <unicode hex="0303"/>
  <anchor x="351" y="517" name="_top"/>
  <anchor x="378" y="650" name="top"/>
  <outline>
    <contour>
      <point x="443" y="619" type="curve" smooth="yes"/>
      <point x="485" y="619"/>
      <point x="515" y="653"/>
      <point x="523" y="703" type="curve"/>
      <point x="504" y="703" type="line"/>
      <point x="498" y="664"/>
      <point x="474" y="638"/>
      <point x="443" y="638" type="curve" smooth="yes"/>
      <point x="396" y="638"/>
      <point x="376" y="707"/>
      <point x="318" y="707" type="curve" smooth="yes"/>
      <point x="276" y="707"/>
      <point x="245" y="673"/>
      <point x="238" y="621" type="curve"/>
      <point x="257" y="621" type="line"/>
      <point x="263" y="662"/>
      <point x="286" y="688"/>
      <point x="317" y="688" type="curve" smooth="yes"/>
      <point x="364" y="688"/>
      <point x="385" y="619"/>
    </contour>
  </outline>
</glyph>
<glyph name="dieresiscomb" format="2">
  <unicode hex="0308"/>
  <anchor x="351" y="517" name="_top"/>
  <anchor x="374" y="630" name="top"/>
  <outline>
    <contour>
      <point x="462" y="641" type="curve" smooth="yes"/>
      <point x="477" y="641"/>
      <point x="489" y="654"/>
      <point x="489" y="669" type="curve" smooth="yes"/>
      <point x="489" y="682"/>
      <point x="477" y="693"/>
      <point x="464" y="693" type="curve" smooth="yes"/>
      <point x="449" y="693"/>
      <point x="437" y="680"/>
      <point x="437" y="665" type="curve" smooth="yes"/>
      <point x="437" y="652"/>
      <point x="449" y="641"/>
    </contour>
    <contour>
      <point x="298" y="641" type="curve" smooth="yes"/>
      <point x="313" y="641"/>
      <point x="325" y="654"/>
      <point x="325" y="669" type="curve" smooth="yes"/>
      <point x="325" y="682"/>
      <point x="313" y="693"/>
      <point x="300" y="693" type="curve" smooth="yes"/>
      <point x="285" y="693"/>
      <point x="273" y="680"/>
      <point x="273" y="665" type="curve" smooth="yes"/>
      <point x="273" y="652"/>
      <point x="285" y="641"/>
    </contour>
  </outline>
</glyph>
<glyph name="hookabovecomb" format="2">
  <unicode hex="0309"/>
  <anchor x="351" y="517" name="_top"/>
  <anchor x="394" y="730" name="top"/>
  <outline>
    <contour>
      <point x="378" y="603" type="line"/>
      <point x="438" y="629"/>
      <point x="462" y="661"/>
      <point x="462" y="705" type="curve" smooth="yes"/>
      <point x="462" y="744"/>
      <point x="433" y="769"/>
      <point x="388" y="769" type="curve" smooth="yes"/>
      <point x="365" y="769"/>
      <point x="338" y="761"/>
      <point x="317" y="747" type="curve"/>
      <point x="325" y="731" type="line"/>
      <point x="347" y="744"/>
      <point x="366" y="750"/>
      <point x="387" y="750" type="curve" smooth="yes"/>
      <point x="419" y="750"/>
      <point x="441" y="731"/>
      <point x="441" y="702" type="curve" smooth="yes"/>
      <point x="441" y="665"/>
      <point x="414" y="638"/>
      <point x="370" y="619" type="curve"/>
    </contour>
  </outline>
</glyph>
<glyph name="caroncomb" format="2">
  <unicode hex="030C"/>
  <anchor x="351" y="517" name="_top"/>
  <anchor x="378" y="650" name="top"/>
  <outline>
    <contour>
      <point x="363" y="607" type="line"/>
      <point x="395" y="607" type="line"/>
      <point x="529" y="717" type="line"/>
      <point x="500" y="717" type="line"/>
      <point x="377" y="621" type="line"/>
      <point x="383" y="621" type="line"/>
      <point x="278" y="717" type="line"/>
      <point x="253" y="717" type="line"/>
    </contour>
  </outline>
</glyph>
<glyph name="dotbelowcomb" format="2">
  <unicode hex="0323"/>
  <anchor x="248" y="0" name="_bottom"/>
  <anchor x="225" y="-113" name="bottom"/>
  <outline>
    <contour>
      <point x="213" y="-176" type="curve" smooth="yes"/>
      <point x="227" y="-176"/>
      <point x="241" y="-164"/>
      <point x="244" y="-150" type="curve" smooth="yes"/>
      <point x="247" y="-136"/>
      <point x="237" y="-124"/>
      <point x="223" y="-124" type="curve" smooth="yes"/>
      <point x="209" y="-124"/>
      <point x="195" y="-136"/>
      <point x="192" y="-150" type="curve" smooth="yes"/>
      <point x="189" y="-164"/>
      <point x="199" y="-176"/>
    </contour>
  </outline>
</glyph>
<glyph name="dieresisbelowcomb" format="2">
  <unicode hex="0324"/>
  <anchor x="248" y="0" name="_bottom"/>
  <anchor x="222" y="-129" name="bottom"/>
  <outline>
    <contour>
      <point x="292" y="-176" type="curve" smooth="yes"/>
      <point x="307" y="-176"/>
      <point x="319" y="-163"/>
      <point x="319" y="-148" type="curve" smooth="yes"/>
      <point x="319" y="-135"/>
      <point x="307" y="-124"/>
      <point x="294" y="-124" type="curve" smooth="yes"/>
      <point x="279" y="-124"/>
      <point x="267" y="-137"/>
      <point x="267" y="-152" type="curve" smooth="yes"/>
      <point x="267" y="-165"/>
      <point x="279" y="-176"/>
    </contour>
    <contour>
      <point x="142" y="-176" type="curve" smooth="yes"/>
      <point x="157" y="-176"/>
      <point x="169" y="-163"/>
      <point x="169" y="-148" type="curve" smooth="yes"/>
      <point x="169" y="-135"/>
      <point x="157" y="-124"/>
      <point x="144" y="-124" type="curve" smooth="yes"/>
      <point x="129" y="-124"/>
      <point x="117" y="-137"/>
      <point x="117" y="-152" type="curve" smooth="yes"/>
      <point x="117" y="-165"/>
      <point x="129" y="-176"/>
    </contour>
  </outline>
</glyph>
<glyph name="slashshortcomb" format="2">
  <unicode hex="0337"/>
  <anchor x="176" y="377" name="_center"/>
  <outline>
    <contour>
      <point x="70" y="299" type="line"/>
      <point x="291" y="441" type="line"/>
      <point x="283" y="455" type="line"/>
      <point x="62" y="313" type="line"/>
    </contour>
  </outline>
</glyph>
<glyph name="slashlongcomb" format="2">
  <unicode hex="0338"/>
  <anchor x="303" y="258" name="_center"/>
  <outline>
    <contour>
      <point x="2" y="-70" type="line"/>
      <point x="27" y="-70" type="line"/>
      <point x="602" y="587" type="line"/>
      <point x="577" y="587" type="line"/>
    </contour>
  </outline>
</glyph>
<glyph name="Ge-cy" format="2">
  <advance width="561"/>
  <unicode hex="0413"/>
  <anchor x="85" y="0" name="bottomleft"/>
  <anchor x="405" y="0" name="bottomright"/>
  <anchor x="426" y="700" name="top"/>
  <outline>
    <contour>
      <point x="85" y="0" type="line"/>
      <point x="105" y="0" type="line"/>
      <point x="243" y="690" type="line"/>
      <point x="232" y="681" type="line"/>
      <point x="637" y="681" type="line"/>
      <point x="641" y="700" type="line"/>
      <point x="225" y="700" type="line"/>
    </contour>
  </outline>
</glyph>
<glyph name="De-cy" format="2">
  <advance width="773"/>
  <unicode hex="0414"/>
  <outline>
    <contour>
      <point x="551" y="10" type="line"/>
      <point x="571" y="10" type="line"/>
      <point x="709" y="700" type="line"/>
      <point x="277" y="700" type="line"/>
      <point x="224" y="468" type="line" smooth="yes"/>
      <point x="167" y="219"/>
      <point x="100" y="10"/>
      <point x="-14" y="19" type="curve"/>
      <point x="12" y="9" type="line"/>
      <point x="121" y="10"/>
      <point x="188" y="230"/>
      <point x="243" y="465" type="curve" smooth="yes"/>
      <point x="293" y="681" type="line"/>
      <point x="685" y="681" type="line"/>
    </contour>
    <contour>
      <point x="-77" y="-165" type="line"/>
      <point x="-57" y="-165" type="line"/>
      <point x="-23" y="0" type="line"/>
      <point x="659" y="0" type="line"/>
      <point x="626" y="-165" type="line"/>
      <point x="646" y="-165" type="line"/>
      <point x="683" y="19" type="line"/>
      <point x="-39" y="19" type="line"/>
    </contour>
  </outline>
</glyph>
<glyph name="Ka-cy" format="2">
  <advance width="683"/>
  <unicode hex="041A"/>
  <anchor x="581" y="0" name="bottomleft"/>
  <anchor x="603" y="0" name="bottomright"/>
  <anchor x="426" y="700" name="top"/>
  <outline>
    <contour>
      <point x="85" y="0" type="line"/>
      <point x="105" y="0" type="line"/>
      <point x="245" y="700" type="line"/>
      <point x="225" y="700" type="line"/>
    </contour>
    <contour>
      <point x="167" y="347" type="line"/>
      <point x="371" y="347" type="line"/>
      <point x="374" y="366" type="line"/>
      <point x="170" y="366" type="line"/>
    </contour>
    <contour>
      <point x="581" y="0" type="line"/>
      <point x="603" y="0" type="line"/>
      <point x="368" y="365" type="line"/>
      <point x="351" y="357" type="line"/>
    </contour>
    <contour>
      <point x="367" y="349" type="line"/>
      <point x="725" y="700" type="line"/>
      <point x="699" y="700" type="line"/>
      <point x="349" y="357" type="line"/>
    </contour>
  </outline>
</glyph>
<glyph name="Em-cy" format="2">
  <advance width="964"/>
  <unicode hex="041C"/>
  <anchor x="430" y="0" name="bottom"/>
  <anchor x="755" y="0" name="bottomleft"/>
  <anchor x="570" y="700" name="top"/>
  <outline>
    <contour>
      <point x="85" y="0" type="line"/>
      <point x="105" y="0" type="line"/>
      <point x="239" y="671" type="line"/>
      <point x="231" y="672" type="line"/>
      <point x="450" y="99" type="line"/>
      <point x="462" y="99" type="line"/>
      <point x="898" y="669" type="line"/>
      <point x="889" y="671" type="line"/>
      <point x="755" y="0" type="line"/>
      <point x="775" y="0" type="line"/>
      <point x="915" y="700" type="line"/>
      <point x="896" y="700" type="line"/>
      <point x="455" y="121" type="line"/>
      <point x="464" y="118" type="line"/>
      <point x="242" y="700" type="line"/>
      <point x="225" y="700" type="line"/>
    </contour>
  </outline>
</glyph>
<glyph name="Ha-cy" format="2">
  <advance width="613"/>
  <unicode hex="0425"/>
  <anchor x="505" y="0" name="bottomleft"/>
  <outline>
    <contour>
      <point x="140" y="700" type="line"/>
      <point x="315" y="362" type="line"/>
      <point x="-19" y="0" type="line"/>
      <point x="6" y="0" type="line"/>
      <point x="324" y="346" type="line"/>
      <point x="505" y="0" type="line"/>
      <point x="528" y="0" type="line"/>
      <point x="339" y="362" type="line"/>
      <point x="649" y="700" type="line"/>
      <point x="625" y="700" type="line"/>
      <point x="330" y="379" type="line"/>
      <point x="164" y="700" type="line"/>
    </contour>
  </outline>
</glyph>
<glyph name="Tse-cy" format="2">
  <advance width="821"/>
  <unicode hex="0426"/>
  <outline>
    <contour>
      <point x="85" y="0" type="line"/>
      <point x="615" y="0" type="line"/>
      <point x="755" y="700" type="line"/>
      <point x="735" y="700" type="line"/>
      <point x="599" y="19" type="line"/>
      <point x="109" y="19" type="line"/>
      <point x="245" y="700" type="line"/>
      <point x="225" y="700" type="line"/>
    </contour>
    <contour>
      <point x="677" y="-175" type="line"/>
      <point x="697" y="-175" type="line"/>
      <point x="736" y="19" type="line"/>
      <point x="599" y="19" type="line"/>
      <point x="595" y="0" type="line"/>
      <point x="721" y="0" type="line"/>
      <point x="714" y="9" type="line"/>
    </contour>
  </outline>
</glyph>
<glyph name="Softsign-cy" format="2">
  <advance width="706"/>
  <unicode hex="042C"/>
  <anchor x="85" y="0" name="#entry"/>
  <anchor x="231" y="590" name="center"/>
  <outline>
    <contour>
      <point x="437" y="436" type="curve" smooth="yes"/>
      <point x="192" y="436" type="line"/>
      <point x="245" y="700" type="line"/>
      <point x="225" y="700" type="line"/>
      <point x="85" y="0" type="line"/>
      <point x="343" y="0" type="line" smooth="yes"/>
      <point x="533" y="0"/>
      <point x="649" y="97"/>
      <point x="649" y="256" type="curve" smooth="yes"/>
      <point x="649" y="378"/>
      <point x="580" y="436"/>
    </contour>
    <contour>
      <point x="343" y="19" type="curve" smooth="yes"/>
      <point x="109" y="19" type="line"/>
      <point x="188" y="417" type="line"/>
      <point x="432" y="417" type="line" smooth="yes"/>
      <point x="568" y="417"/>
      <point x="629" y="368"/>
      <point x="629" y="257" type="curve" smooth="yes"/>
      <point x="629" y="109"/>
      <point x="519" y="19"/>
    </contour>
  </outline>
</glyph>
<glyph name="be-cy" format="2">
  <advance width="661"/>
  <unicode hex="0431"/>
  <outline>
    <contour>
      <point x="309" y="-3" type="curve" smooth="yes"/>
      <point x="473" y="-3"/>
      <point x="599" y="126"/>
      <point x="599" y="298" type="curve" smooth="yes"/>
      <point x="599" y="428"/>
      <point x="520" y="507"/>
      <point x="390" y="507" type="curve" smooth="yes"/>
      <point x="260" y="507"/>
      <point x="152" y="434"/>
      <point x="93" y="304" type="curve"/>
      <point x="103" y="309" type="line"/>
      <point x="131" y="495"/>
      <point x="256" y="652"/>
      <point x="422" y="690" type="curve" smooth="yes"/>
      <point x="652" y="742" type="line"/>
      <point x="648" y="762" type="line"/>
      <point x="418" y="710" type="line" smooth="yes"/>
      <point x="222" y="666"/>
      <point x="82" y="465"/>
      <point x="82" y="247" type="curve" smooth="yes"/>
      <point x="82" y="90"/>
      <point x="168" y="-3"/>
    </contour>
    <contour>
      <point x="311" y="17" type="curve" smooth="yes"/>
      <point x="183" y="17"/>
      <point x="102" y="101"/>
      <point x="102" y="237" type="curve" smooth="yes"/>
      <point x="102" y="365"/>
      <point x="243" y="487"/>
      <point x="390" y="487" type="curve" smooth="yes"/>
      <point x="510" y="487"/>
      <point x="579" y="418"/>
      <point x="579" y="298" type="curve" smooth="yes"/>
      <point x="579" y="138"/>
      <point x="462" y="17"/>
    </contour>
  </outline>
</glyph>
<glyph name="ge-cy" format="2">
  <advance width="448"/>
  <unicode hex="0433"/>
  <anchor x="64" y="0" name="bottomleft"/>
  <anchor x="320" y="0" name="bottomright"/>
  <anchor x="340" y="517" name="top"/>
  <outline>
    <contour>
      <point x="64" y="0" type="line"/>
      <point x="84" y="0" type="line"/>
      <point x="185" y="506" type="line"/>
      <point x="176" y="498" type="line"/>
      <point x="500" y="498" type="line"/>
      <point x="504" y="517" type="line"/>
      <point x="168" y="517" type="line"/>
    </contour>
  </outline>
</glyph>
<glyph name="ze-cy" format="2">
  <advance width="509"/>
  <unicode hex="0437"/>
  <anchor x="185" y="0" name="bottom"/>
  <anchor x="277" y="517" name="top"/>
  <outline>
    <contour>
      <point x="188" y="-3" type="curve" smooth="yes"/>
      <point x="318" y="-3"/>
      <point x="415" y="65"/>
      <point x="415" y="156" type="curve" smooth="yes"/>
      <point x="415" y="217"/>
      <point x="376" y="254"/>
      <point x="295" y="272" type="curve"/>
      <point x="295" y="268" type="line"/>
      <point x="387" y="287"/>
      <point x="440" y="334"/>
      <point x="440" y="399" type="curve" smooth="yes"/>
      <point x="440" y="473"/>
      <point x="373" y="520"/>
      <point x="272" y="520" type="curve" smooth="yes"/>
      <point x="213" y="520"/>
      <point x="153" y="504"/>
      <point x="91" y="474" type="curve"/>
      <point x="102" y="456" type="line"/>
      <point x="159" y="484"/>
      <point x="216" y="500"/>
      <point x="273" y="500" type="curve" smooth="yes"/>
      <point x="362" y="500"/>
      <point x="420" y="461"/>
      <point x="420" y="400" type="curve" smooth="yes"/>
      <point x="420" y="330"/>
      <point x="343" y="280"/>
      <point x="233" y="280" type="curve" smooth="yes"/>
      <point x="169" y="280" type="line"/>
      <point x="165" y="260" type="line"/>
      <point x="237" y="260" type="line" smooth="yes"/>
      <point x="335" y="260"/>
      <point x="395" y="220"/>
      <point x="395" y="155" type="curve" smooth="yes"/>
      <point x="395" y="77"/>
      <point x="304" y="17"/>
      <point x="186" y="17" type="curve" smooth="yes"/>
      <point x="112" y="17"/>
      <point x="52" y="40"/>
      <point x="16" y="84" type="curve"/>
      <point x="0" y="72" type="line"/>
      <point x="41" y="23"/>
      <point x="107" y="-3"/>
    </contour>
  </outline>
</glyph>
<glyph name="ka-cy" format="2">
  <advance width="546"/>
  <unicode hex="043A"/>
  <anchor x="452" y="0" name="bottomleft"/>
  <anchor x="474" y="0" name="bottomright"/>
  <anchor x="332" y="517" name="top"/>
  <outline>
    <contour>
      <point x="452" y="0" type="line"/>
      <point x="474" y="0" type="line"/>
      <point x="284" y="271" type="line"/>
      <point x="267" y="263" type="line"/>
    </contour>
    <contour>
      <point x="64" y="0" type="line"/>
      <point x="84" y="0" type="line"/>
      <point x="188" y="517" type="line"/>
      <point x="168" y="517" type="line"/>
    </contour>
    <contour>
      <point x="128" y="254" type="line"/>
      <point x="285" y="254" type="line"/>
      <point x="289" y="272" type="line"/>
      <point x="132" y="272" type="line"/>
    </contour>
    <contour>
      <point x="284" y="257" type="line"/>
      <point x="563" y="517" type="line"/>
      <point x="535" y="517" type="line"/>
      <point x="262" y="263" type="line"/>
    </contour>
  </outline>
</glyph>
<glyph name="ef-cy" format="2">
  <advance width="744"/>
  <unicode hex="0444"/>
  <outline>
    <contour>
      <point x="317" y="-3" type="curve"/>
      <point x="321" y="-3" type="line"/>
      <point x="537" y="-3"/>
      <point x="689" y="126"/>
      <point x="689" y="308" type="curve" smooth="yes"/>
      <point x="689" y="449"/>
      <point x="598" y="518"/>
      <point x="425" y="520" type="curve"/>
      <point x="423" y="520" type="line"/>
      <point x="208" y="520"/>
      <point x="54" y="391"/>
      <point x="54" y="209" type="curve" smooth="yes"/>
      <point x="54" y="69"/>
      <point x="145" y="-1"/>
    </contour>
    <contour>
      <point x="319" y="16" type="line"/>
      <point x="163" y="18"/>
      <point x="74" y="78"/>
      <point x="74" y="210" type="curve" smooth="yes"/>
      <point x="74" y="378"/>
      <point x="219" y="501"/>
      <point x="418" y="501" type="curve"/>
      <point x="422" y="501" type="line"/>
      <point x="586" y="501"/>
      <point x="669" y="435"/>
      <point x="669" y="307" type="curve" smooth="yes"/>
      <point x="669" y="138"/>
      <point x="523" y="16"/>
      <point x="322" y="16" type="curve"/>
    </contour>
    <contour>
      <point x="272" y="-194" type="line"/>
      <point x="292" y="-194" type="line"/>
      <point x="479" y="742" type="line"/>
      <point x="459" y="742" type="line"/>
    </contour>
  </outline>
</glyph>
<glyph name="hardsign-cy" format="2">
  <advance width="587"/>
  <unicode hex="044A"/>
  <outline>
    <contour>
      <point x="222" y="498" type="line"/>
      <point x="238" y="517" type="line"/>
      <point x="48" y="517" type="line"/>
      <point x="44" y="498" type="line"/>
    </contour>
    <contour>
      <point x="360" y="322" type="curve" smooth="yes"/>
      <point x="199" y="322" type="line"/>
      <point x="238" y="517" type="line"/>
      <point x="218" y="517" type="line"/>
      <point x="114" y="0" type="line"/>
      <point x="299" y="0" type="line" smooth="yes"/>
      <point x="439" y="0"/>
      <point x="530" y="75"/>
      <point x="530" y="189" type="curve" smooth="yes"/>
      <point x="530" y="278"/>
      <point x="474" y="322"/>
    </contour>
    <contour>
      <point x="299" y="18" type="curve" smooth="yes"/>
      <point x="138" y="18" type="line"/>
      <point x="195" y="304" type="line"/>
      <point x="355" y="304" type="line" smooth="yes"/>
      <point x="461" y="304"/>
      <point x="511" y="267"/>
      <point x="511" y="189" type="curve" smooth="yes"/>
      <point x="511" y="86"/>
      <point x="426" y="18"/>
    </contour>
  </outline>
</glyph>
<glyph name="iu-cy" format="2">
  <advance width="851"/>
  <unicode hex="044E"/>
  <outline>
    <contour>
      <point x="66" y="0" type="line"/>
      <point x="86" y="0" type="line"/>
      <point x="137" y="253" type="line"/>
      <point x="298" y="253" type="line"/>
      <point x="301" y="272" type="line"/>
      <point x="140" y="272" type="line"/>
      <point x="189" y="517" type="line"/>
      <point x="169" y="517" type="line"/>
    </contour>
    <contour>
      <point x="500" y="-3" type="curve" smooth="yes"/>
      <point x="668" y="-3"/>
      <point x="789" y="130"/>
      <point x="789" y="311" type="curve" smooth="yes"/>
      <point x="789" y="439"/>
      <point x="705" y="520"/>
      <point x="572" y="520" type="curve" smooth="yes"/>
      <point x="404" y="520"/>
      <point x="283" y="386"/>
      <point x="283" y="206" type="curve" smooth="yes"/>
      <point x="283" y="78"/>
      <point x="367" y="-3"/>
    </contour>
    <contour>
      <point x="503" y="16" type="curve" smooth="yes"/>
      <point x="377" y="16"/>
      <point x="303" y="86"/>
      <point x="303" y="207" type="curve" smooth="yes"/>
      <point x="303" y="376"/>
      <point x="416" y="501"/>
      <point x="569" y="501" type="curve" smooth="yes"/>
      <point x="695" y="501"/>
      <point x="769" y="431"/>
      <point x="769" y="310" type="curve" smooth="yes"/>
      <point x="769" y="140"/>
      <point x="656" y="16"/>
    </contour>
  </outline>
</glyph>
<glyph name="nje-cy" format="2">
  <advance width="925"/>
  <unicode hex="045A"/>
  <outline>
    <contour>
      <point x="526" y="276" type="line"/>
      <point x="530" y="294" type="line"/>
      <point x="143" y="294" type="line"/>
      <point x="188" y="517" type="line"/>
      <point x="168" y="517" type="line"/>
      <point x="64" y="0" type="line"/>
      <point x="84" y="0" type="line"/>
      <point x="139" y="276" type="line"/>
    </contour>
    <contour>
      <point x="701" y="294" type="curve" smooth="yes"/>
      <point x="542" y="294" type="line"/>
      <point x="586" y="517" type="line"/>
      <point x="566" y="517" type="line"/>
      <point x="462" y="0" type="line"/>
      <point x="645" y="0" type="line" smooth="yes"/>
      <point x="782" y="0"/>
      <point x="870" y="68"/>
      <point x="870" y="170" type="curve" smooth="yes"/>
      <point x="870" y="253"/>
      <point x="814" y="294"/>
    </contour>
    <contour>
      <point x="645" y="18" type="curve" smooth="yes"/>
      <point x="486" y="18" type="line"/>
      <point x="538" y="277" type="line"/>
      <point x="696" y="277" type="line" smooth="yes"/>
      <point x="801" y="277"/>
      <point x="851" y="242"/>
      <point x="851" y="170" type="curve" smooth="yes"/>
      <point x="851" y="79"/>
      <point x="768" y="18"/>
    </contour>
  </outline>
</glyph>
<glyph name="yusbig-cy" format="2">
  <advance width="631"/>
  <unicode hex="046B"/>
  <outline>
    <contour>
      <point x="-23" y="0" type="line"/>
      <point x="-1" y="0" type="line"/>
      <point x="78" y="119" type="line" smooth="yes"/>
      <point x="133" y="202"/>
      <point x="198" y="247"/>
      <point x="272" y="247" type="curve" smooth="yes"/>
      <point x="303" y="247" type="line"/>
      <point x="254" y="0" type="line"/>
      <point x="274" y="0" type="line"/>
      <point x="323" y="247" type="line"/>
      <point x="355" y="247" type="line" smooth="yes"/>
      <point x="428" y="247"/>
      <point x="476" y="203"/>
      <point x="498" y="119" type="curve" smooth="yes"/>
      <point x="529" y="0" type="line"/>
      <point x="551" y="0" type="line"/>
      <point x="517" y="127" type="line" smooth="yes"/>
      <point x="493" y="217"/>
      <point x="439" y="267"/>
      <point x="359" y="267" type="curve" smooth="yes"/>
      <point x="276" y="267" type="line" smooth="yes"/>
      <point x="195" y="267"/>
      <point x="121" y="218"/>
      <point x="61" y="127" type="curve" smooth="yes"/>
    </contour>
    <contour>
      <point x="318" y="268" type="line"/>
      <point x="153" y="499" type="line"/>
      <point x="574" y="499" type="line"/>
    </contour>
    <contour>
      <point x="296" y="265" type="line"/>
      <point x="339" y="265" type="line"/>
      <point x="601" y="500" type="line"/>
      <point x="604" y="517" type="line"/>
      <point x="130" y="517" type="line"/>
      <point x="127" y="500" type="line"/>
    </contour>
  </outline>
</glyph>
<glyph name="Semisoftsign-cy" format="2">
  <advance width="730"/>
  <unicode hex="048C"/>
  <outline>
    <contour>
      <point x="109" y="0" type="line"/>
      <point x="367" y="0" type="line" smooth="yes"/>
      <point x="557" y="0"/>
      <point x="673" y="97"/>
      <point x="673" y="256" type="curve" smooth="yes"/>
      <point x="673" y="378"/>
      <point x="604" y="436"/>
      <point x="461" y="436" type="curve" smooth="yes"/>
      <point x="216" y="436" type="line"/>
      <point x="277" y="742" type="line"/>
      <point x="257" y="742" type="line"/>
    </contour>
    <contour>
      <point x="133" y="19" type="line"/>
      <point x="212" y="417" type="line"/>
      <point x="456" y="417" type="line" smooth="yes"/>
      <point x="592" y="417"/>
      <point x="653" y="368"/>
      <point x="653" y="257" type="curve" smooth="yes"/>
      <point x="653" y="109"/>
      <point x="543" y="19"/>
      <point x="367" y="19" type="curve" smooth="yes"/>
    </contour>
    <contour>
      <point x="100" y="580" type="line"/>
      <point x="485" y="580" type="line"/>
      <point x="489" y="599" type="line"/>
      <point x="104" y="599" type="line"/>
    </contour>
  </outline>
</glyph>
<glyph name="kaverticalstroke-cy" format="2">
  <advance width="552"/>
  <unicode hex="049D"/>
  <outline>
    <contour>
      <point x="128" y="254" type="line"/>
      <point x="315" y="254" type="line"/>
      <point x="319" y="272" type="line"/>
      <point x="132" y="272" type="line"/>
    </contour>
    <contour>
      <point x="452" y="0" type="line"/>
      <point x="474" y="0" type="line"/>
      <point x="314" y="271" type="line"/>
      <point x="297" y="263" type="line"/>
    </contour>
    <contour>
      <point x="64" y="0" type="line"/>
      <point x="84" y="0" type="line"/>
      <point x="188" y="517" type="line"/>
      <point x="168" y="517" type="line"/>
    </contour>
    <contour>
      <point x="202" y="132" type="line"/>
      <point x="219" y="132" type="line"/>
      <point x="272" y="398" type="line"/>
      <point x="256" y="398" type="line"/>
    </contour>
    <contour>
      <point x="314" y="257" type="line"/>
      <point x="563" y="517" type="line"/>
      <point x="537" y="517" type="line"/>
      <point x="294" y="263" type="line"/>
    </contour>
  </outline>
</glyph>
<glyph name="Pemiddlehook-cy" format="2">
  <advance width="1238"/>
  <unicode hex="04A6"/>
  <outline>
    <contour>
      <point x="786" y="-126" type="line"/>
      <point x="976" y="-163"/>
      <point x="1156" y="5"/>
      <point x="1156" y="201" type="curve" smooth="yes"/>
      <point x="1156" y="433"/>
      <point x="903" y="451"/>
      <point x="692" y="313" type="curve"/>
      <point x="699" y="296" type="line"/>
      <point x="899" y="427"/>
      <point x="1136" y="414"/>
      <point x="1136" y="199" type="curve" smooth="yes"/>
      <point x="1136" y="25"/>
      <point x="980" y="-140"/>
      <point x="792" y="-106" type="curve"/>
    </contour>
    <component base="Pe-cy"/>
  </outline>
</glyph>
<glyph name="pemiddlehook-cy" format="2">
  <advance width="989"/>
  <unicode hex="04A7"/>
  <outline>
    <contour>
      <point x="571" y="-193" type="line"/>
      <point x="755" y="-227"/>
      <point x="913" y="-100"/>
      <point x="913" y="83" type="curve" smooth="yes"/>
      <point x="913" y="277"/>
      <point x="727" y="333"/>
      <point x="521" y="200" type="curve"/>
      <point x="531" y="184" type="line"/>
      <point x="724" y="307"/>
      <point x="893" y="260"/>
      <point x="893" y="83" type="curve" smooth="yes"/>
      <point x="893" y="-87"/>
      <point x="746" y="-205"/>
      <point x="575" y="-173" type="curve"/>
    </contour>
    <component base="pe-cy"/>
  </outline>
</glyph>
<glyph name="Haabkhasian-cy" format="2">
  <advance width="970"/>
  <unicode hex="04A8"/>
  <outline>
    <contour>
      <point x="425" y="-3" type="curve" smooth="yes"/>
      <point x="678" y="-3"/>
      <point x="900" y="204"/>
      <point x="900" y="445" type="curve" smooth="yes"/>
      <point x="900" y="596"/>
      <point x="805" y="703"/>
      <point x="664" y="703" type="curve" smooth="yes"/>
      <point x="498" y="703"/>
      <point x="373" y="556"/>
      <point x="373" y="368" type="curve" smooth="yes"/>
      <point x="373" y="111"/>
      <point x="591" y="-53"/>
      <point x="847" y="12" type="curve"/>
      <point x="843" y="32" type="line"/>
      <point x="599" y="-31"/>
      <point x="393" y="125"/>
      <point x="393" y="368" type="curve" smooth="yes"/>
      <point x="393" y="545"/>
      <point x="509" y="683"/>
      <point x="664" y="683" type="curve" smooth="yes"/>
      <point x="794" y="683"/>
      <point x="880" y="585"/>
      <point x="880" y="445" type="curve" smooth="yes"/>
      <point x="880" y="215"/>
      <point x="668" y="17"/>
      <point x="425" y="17" type="curve" smooth="yes"/>
      <point x="237" y="17"/>
      <point x="110" y="140"/>
      <point x="110" y="319" type="curve" smooth="yes"/>
      <point x="110" y="482"/>
      <point x="213" y="621"/>
      <point x="375" y="684" type="curve"/>
      <point x="367" y="702" type="line"/>
      <point x="198" y="637"/>
      <point x="90" y="490"/>
      <point x="90" y="319" type="curve" smooth="yes"/>
      <point x="90" y="129"/>
      <point x="226" y="-3"/>
    </contour>
  </outline>
</glyph>
<glyph name="Ustraitstroke-cy" format="2">
  <advance width="620"/>
  <unicode hex="04B0"/>
  <outline>
    <contour>
      <point x="99.716" y="232" type="line"/>
      <point x="508.2584" y="232" type="line"/>
      <point x="512.5816" y="251" type="line"/>
      <point x="104.0392" y="251" type="line"/>
    </contour>
    <component base="Ustrait-cy"/>
  </outline>
</glyph>
<glyph name="ustraitstroke-cy" format="2">
  <advance width="529"/>
  <unicode hex="04B1"/>
  <outline>
    <contour>
      <point x="24" y="-4" type="line"/>
      <point x="402" y="-4" type="line"/>
      <point x="406" y="15" type="line"/>
      <point x="28" y="15" type="line"/>
    </contour>
    <component base="ustrait-cy"/>
  </outline>
</glyph>
<glyph name="Tetse-cy" format="2">
  <advance width="952"/>
  <unicode hex="04B4"/>
  <anchor x="226" y="0" name="bottom"/>
  <anchor x="297" y="356" name="center"/>
  <anchor x="366" y="700" name="top"/>
  <outline>
    <contour>
      <point x="216" y="0" type="line"/>
      <point x="236" y="0" type="line"/>
      <point x="374" y="690" type="line"/>
      <point x="363" y="681" type="line"/>
      <point x="622" y="681" type="line"/>
      <point x="626" y="700" type="line"/>
      <point x="96" y="700" type="line"/>
      <point x="92" y="681" type="line"/>
      <point x="361" y="681" type="line"/>
      <point x="354" y="690" type="line"/>
    </contour>
    <component base="Tse-cy" xOffset="131"/>
  </outline>
</glyph>
<glyph name="Shha-cy" format="2">
  <advance width="720"/>
  <unicode hex="04BA"/>
  <anchor x="578" y="0" name="bottomleft"/>
  <outline>
    <contour>
      <point x="578" y="0" type="line"/>
      <point x="598" y="0" type="line"/>
      <point x="646" y="237" type="line" smooth="yes"/>
      <point x="672" y="366"/>
      <point x="596" y="445"/>
      <point x="444" y="445" type="curve" smooth="yes"/>
      <point x="365" y="445"/>
      <point x="269" y="423"/>
      <point x="173" y="381" type="curve"/>
      <point x="168" y="360" type="line"/>
      <point x="269" y="403"/>
      <point x="365" y="426"/>
      <point x="444" y="426" type="curve" smooth="yes"/>
      <point x="581" y="426"/>
      <point x="649" y="356"/>
      <point x="626" y="239" type="curve" smooth="yes"/>
    </contour>
    <contour>
      <point x="85" y="0" type="line"/>
      <point x="105" y="0" type="line"/>
      <point x="245" y="700" type="line"/>
      <point x="225" y="700" type="line"/>
    </contour>
  </outline>
</glyph>
<glyph name="chekhakassian-cy" format="2">
  <advance width="577"/>
  <unicode hex="04CC"/>
  <outline>
    <contour>
      <point x="231" y="187" type="curve" smooth="yes"/>
      <point x="289" y="187"/>
      <point x="362" y="202"/>
      <point x="440" y="233" type="curve"/>
      <point x="443" y="253" type="line"/>
      <point x="363" y="221"/>
      <point x="291" y="205"/>
      <point x="232" y="205" type="curve" smooth="yes"/>
      <point x="130" y="205"/>
      <point x="73" y="253"/>
      <point x="91" y="341" type="curve" smooth="yes"/>
      <point x="126" y="517" type="line"/>
      <point x="106" y="517" type="line"/>
      <point x="71" y="343" type="line" smooth="yes"/>
      <point x="50" y="240"/>
      <point x="118" y="187"/>
    </contour>
    <contour>
      <point x="274" y="-121" type="line"/>
      <point x="294" y="-121" type="line"/>
      <point x="320" y="8" type="line"/>
      <point x="310" y="0" type="line"/>
      <point x="409" y="0" type="line"/>
      <point x="413" y="18" type="line"/>
      <point x="302" y="18" type="line"/>
    </contour>
    <contour>
      <point x="389" y="0" type="line"/>
      <point x="409" y="0" type="line"/>
      <point x="513" y="517" type="line"/>
      <point x="493" y="517" type="line"/>
    </contour>
  </outline>
</glyph>
<glyph name="schwa-cy" format="2">
  <advance width="622"/>
  <unicode hex="04D9"/>
  <anchor x="363" y="517" name="top"/>
  <outline>
    <contour>
      <point x="327" y="520" type="curve" smooth="yes"/>
      <point x="243" y="520"/>
      <point x="168" y="487"/>
      <point x="126" y="437" type="curve"/>
      <point x="138" y="424" type="line"/>
      <point x="180" y="472"/>
      <point x="248" y="501"/>
      <point x="326" y="501" type="curve" smooth="yes"/>
      <point x="462" y="501"/>
      <point x="536" y="432"/>
      <point x="536" y="307" type="curve" smooth="yes"/>
      <point x="536" y="140"/>
      <point x="426" y="16"/>
      <point x="279" y="16" type="curve" smooth="yes"/>
      <point x="152" y="16"/>
      <point x="67" y="99"/>
      <point x="90" y="250" type="curve"/>
      <point x="82" y="239" type="line"/>
      <point x="535" y="239" type="line"/>
      <point x="539" y="258" type="line"/>
      <point x="73" y="258" type="line"/>
      <point x="70" y="243"/>
      <point x="68" y="225"/>
      <point x="68" y="207" type="curve" smooth="yes"/>
      <point x="68" y="76"/>
      <point x="148" y="-3"/>
      <point x="279" y="-3" type="curve" smooth="yes"/>
      <point x="438" y="-3"/>
      <point x="555" y="131"/>
      <point x="555" y="307" type="curve" smooth="yes"/>
      <point x="555" y="443"/>
      <point x="470" y="520"/>
    </contour>
  </outline>
</glyph>
<glyph name="dzeabkhasian-cy" format="2">
  <advance width="487"/>
  <unicode hex="04E1"/>
  <outline>
    <contour>
      <point x="130" y="-198" type="curve" smooth="yes"/>
      <point x="272" y="-198"/>
      <point x="398" y="-118"/>
      <point x="398" y="25" type="curve" smooth="yes"/>
      <point x="398" y="136"/>
      <point x="323" y="198"/>
      <point x="178" y="198" type="curve" smooth="yes"/>
      <point x="173" y="198" type="line"/>
      <point x="175" y="191" type="line"/>
      <point x="469" y="502" type="line"/>
      <point x="472" y="517" type="line"/>
      <point x="49" y="517" type="line"/>
      <point x="45" y="498" type="line"/>
      <point x="448" y="498" type="line"/>
      <point x="445" y="504" type="line"/>
      <point x="153" y="194" type="line"/>
      <point x="150" y="179" type="line"/>
      <point x="178" y="179" type="line" smooth="yes"/>
      <point x="315" y="179"/>
      <point x="378" y="124"/>
      <point x="378" y="27" type="curve" smooth="yes"/>
      <point x="378" y="-106"/>
      <point x="261" y="-179"/>
      <point x="131" y="-179" type="curve" smooth="yes"/>
      <point x="52" y="-179"/>
      <point x="-28" y="-152"/>
      <point x="-82" y="-85" type="curve"/>
      <point x="-97" y="-99" type="line"/>
      <point x="-39" y="-170"/>
      <point x="46" y="-198"/>
    </contour>
  </outline>
</glyph>
<glyph name="Hastroke-cy" format="2">
  <advance width="636"/>
  <unicode hex="04FE"/>
  <outline>
    <contour>
      <point x="127" y="353" type="line"/>
      <point x="537" y="353" type="line"/>
      <point x="541" y="372" type="line"/>
      <point x="131" y="372" type="line"/>
    </contour>
    <contour>
      <point x="153" y="700" type="line"/>
      <point x="328" y="362" type="line"/>
      <point x="-6" y="0" type="line"/>
      <point x="19" y="0" type="line"/>
      <point x="337" y="346" type="line"/>
      <point x="518" y="0" type="line"/>
      <point x="541" y="0" type="line"/>
      <point x="352" y="362" type="line"/>
      <point x="662" y="700" type="line"/>
      <point x="638" y="700" type="line"/>
      <point x="343" y="379" type="line"/>
      <point x="177" y="700" type="line"/>
    </contour>
  </outline>
</glyph>
<glyph name="reversedze-cy" format="2">
  <advance width="516"/>
  <unicode hex="0511"/>
  <outline>
    <contour>
      <point x="234" y="-3" type="curve" smooth="yes"/>
      <point x="311" y="-3"/>
      <point x="389" y="23"/>
      <point x="446" y="70" type="curve"/>
      <point x="434" y="86" type="line"/>
      <point x="383" y="41"/>
      <point x="309" y="16"/>
      <point x="234" y="17" type="curve" smooth="yes"/>
      <point x="136" y="18"/>
      <point x="72" y="66"/>
      <point x="72" y="135" type="curve" smooth="yes"/>
      <point x="72" y="211"/>
      <point x="149" y="259"/>
      <point x="271" y="259" type="curve" smooth="yes"/>
      <point x="347" y="259" type="line"/>
      <point x="351" y="279" type="line"/>
      <point x="271" y="279" type="line" smooth="yes"/>
      <point x="183" y="279"/>
      <point x="133" y="312"/>
      <point x="133" y="369" type="curve" smooth="yes"/>
      <point x="133" y="443"/>
      <point x="222" y="500"/>
      <point x="336" y="500" type="curve" smooth="yes"/>
      <point x="398" y="500"/>
      <point x="449" y="483"/>
      <point x="487" y="455" type="curve"/>
      <point x="499" y="471" type="line"/>
      <point x="458" y="502"/>
      <point x="402" y="520"/>
      <point x="339" y="520" type="curve" smooth="yes"/>
      <point x="211" y="520"/>
      <point x="113" y="454"/>
      <point x="113" y="368" type="curve" smooth="yes"/>
      <point x="113" y="313"/>
      <point x="149" y="279"/>
      <point x="217" y="269" type="curve"/>
      <point x="217" y="272" type="line"/>
      <point x="110" y="259"/>
      <point x="52" y="211"/>
      <point x="52" y="136" type="curve" smooth="yes"/>
      <point x="52" y="54"/>
      <point x="125" y="-3"/>
    </contour>
  </outline>
</glyph>
<glyph name="elhook-cy" format="2">
  <advance width="613"/>
  <unicode hex="0513"/>
  <anchor x="415" y="0" name="bottomleft"/>
  <outline>
    <contour>
      <point x="431" y="-70" type="curve"/>
      <point x="548" y="517" type="line"/>
      <point x="208" y="517" type="line"/>
      <point x="165" y="348" type="line" smooth="yes"/>
      <point x="114" y="148"/>
      <point x="64" y="16"/>
      <point x="-6" y="16" type="curve" smooth="yes"/>
      <point x="-17" y="16"/>
      <point x="-29" y="17"/>
      <point x="-39" y="19" type="curve"/>
      <point x="-47" y="0" type="line"/>
      <point x="-34" y="-3"/>
      <point x="-21" y="-4"/>
      <point x="-5" y="-4" type="curve" smooth="yes"/>
      <point x="75" y="-4"/>
      <point x="133" y="140"/>
      <point x="185" y="344" type="curve" smooth="yes"/>
      <point x="226" y="506" type="line"/>
      <point x="217" y="498" type="line"/>
      <point x="533" y="498" type="line"/>
      <point x="526" y="506" type="line"/>
      <point x="412" y="-65" type="line"/>
      <point x="397" y="-138"/>
      <point x="353" y="-178"/>
      <point x="286" y="-178" type="curve" smooth="yes"/>
      <point x="250" y="-178"/>
      <point x="222" y="-167"/>
      <point x="204" y="-146" type="curve"/>
      <point x="187" y="-160" type="line"/>
      <point x="206" y="-185"/>
      <point x="244" y="-197"/>
      <point x="284" y="-197" type="curve" smooth="yes"/>
      <point x="363" y="-197"/>
      <point x="416" y="-146"/>
    </contour>
  </outline>
</glyph>
<glyph name="we-cy" format="2">
  <advance width="835"/>
  <unicode hex="051D"/>
  <anchor x="454" y="0" name="bottom"/>
  <anchor x="454" y="517" name="top"/>
  <outline>
    <contour>
      <point x="166" y="0" type="line"/>
      <point x="184" y="0" type="line"/>
      <point x="470" y="498" type="line"/>
      <point x="462" y="498" type="line"/>
      <point x="568" y="0" type="line"/>
      <point x="586" y="0" type="line"/>
      <point x="880" y="517" type="line"/>
      <point x="858" y="517" type="line"/>
      <point x="575" y="14" type="line"/>
      <point x="583" y="14" type="line"/>
      <point x="477" y="517" type="line"/>
      <point x="460" y="517" type="line"/>
      <point x="173" y="14" type="line"/>
      <point x="180" y="14" type="line"/>
      <point x="78" y="517" type="line"/>
      <point x="59" y="517" type="line"/>
    </contour>
  </outline>
</glyph>
<glyph name="shhadescender-cy" format="2">
  <advance width="675"/>
  <unicode hex="0527"/>
  <outline>
    <contour>
      <point x="542" y="-121" type="line"/>
      <point x="562" y="-121" type="line"/>
      <point x="590" y="18" type="line"/>
      <point x="493" y="18" type="line"/>
      <point x="489" y="0" type="line"/>
      <point x="574" y="0" type="line"/>
      <point x="568" y="8" type="line"/>
    </contour>
    <contour>
      <point x="395" y="520" type="curve" smooth="yes"/>
      <point x="286" y="520"/>
      <point x="197" y="472"/>
      <point x="148" y="362" type="curve"/>
      <point x="158" y="367" type="line"/>
      <point x="233" y="742" type="line"/>
      <point x="213" y="742" type="line"/>
      <point x="65" y="0" type="line"/>
      <point x="85" y="0" type="line"/>
      <point x="142" y="287" type="line" smooth="yes"/>
      <point x="170" y="427"/>
      <point x="262" y="501"/>
      <point x="393" y="501" type="curve" smooth="yes"/>
      <point x="521" y="501"/>
      <point x="574" y="426"/>
      <point x="550" y="305" type="curve" smooth="yes"/>
      <point x="489" y="0" type="line"/>
      <point x="509" y="0" type="line"/>
      <point x="570" y="305" type="line" smooth="yes"/>
      <point x="595" y="431"/>
      <point x="538" y="520"/>
    </contour>
  </outline>
</glyph>
<glyph name="quoteleft" format="2">
  <advance width="182"/>
  <unicode hex="2018"/>
  <outline>
    <contour>
      <point x="217" y="742" type="line"/>
      <point x="199" y="742" type="line"/>
      <point x="138" y="608" type="line" smooth="yes"/>
      <point x="133" y="597"/>
      <point x="129" y="590"/>
      <point x="129" y="579" type="curve" smooth="yes"/>
      <point x="129" y="565"/>
      <point x="141" y="553"/>
      <point x="155" y="553" type="curve" smooth="yes"/>
      <point x="169" y="553"/>
      <point x="181" y="565"/>
      <point x="181" y="579" type="curve" smooth="yes"/>
      <point x="181" y="593"/>
      <point x="169" y="605"/>
      <point x="155" y="605" type="curve"/>
      <point x="156" y="594" type="line"/>
    </contour>
  </outline>
</glyph>
<glyph name="bullet" format="2">
  <advance width="258"/>
  <unicode hex="2022"/>
  <outline>
    <contour>
      <point x="129" y="225" type="curve" smooth="yes"/>
      <point x="154" y="225"/>
      <point x="175" y="246"/>
      <point x="175" y="271" type="curve" smooth="yes"/>
      <point x="175" y="294"/>
      <point x="156" y="313"/>
      <point x="133" y="313" type="curve" smooth="yes"/>
      <point x="108" y="313"/>
      <point x="87" y="292"/>
      <point x="87" y="267" type="curve" smooth="yes"/>
      <point x="87" y="244"/>
      <point x="106" y="225"/>
    </contour>
  </outline>
</glyph>
<glyph name="perthousand" format="2">
  <advance width="1149"/>
  <unicode hex="2030"/>
  <outline>
    <contour>
      <point x="98" y="0" type="line"/>
      <point x="122" y="0" type="line"/>
      <point x="738" y="700" type="line"/>
      <point x="714" y="700" type="line"/>
    </contour>
    <contour>
      <point x="223" y="328" type="curve" smooth="yes"/>
      <point x="334" y="328"/>
      <point x="403" y="442"/>
      <point x="403" y="558" type="curve" smooth="yes"/>
      <point x="403" y="647"/>
      <point x="355" y="702"/>
      <point x="277" y="702" type="curve" smooth="yes"/>
      <point x="166" y="702"/>
      <point x="97" y="588"/>
      <point x="97" y="472" type="curve" smooth="yes"/>
      <point x="97" y="383"/>
      <point x="145" y="328"/>
    </contour>
    <contour>
      <point x="224" y="346" type="curve" smooth="yes"/>
      <point x="156" y="346"/>
      <point x="117" y="394"/>
      <point x="117" y="474" type="curve" smooth="yes"/>
      <point x="117" y="574"/>
      <point x="175" y="684"/>
      <point x="276" y="684" type="curve" smooth="yes"/>
      <point x="344" y="684"/>
      <point x="383" y="636"/>
      <point x="383" y="556" type="curve" smooth="yes"/>
      <point x="383" y="456"/>
      <point x="325" y="346"/>
    </contour>
    <contour>
      <point x="559" y="-3" type="curve" smooth="yes"/>
      <point x="670" y="-3"/>
      <point x="739" y="111"/>
      <point x="739" y="227" type="curve" smooth="yes"/>
      <point x="739" y="316"/>
      <point x="691" y="371"/>
      <point x="613" y="371" type="curve" smooth="yes"/>
      <point x="502" y="371"/>
      <point x="433" y="257"/>
      <point x="433" y="141" type="curve" smooth="yes"/>
      <point x="433" y="52"/>
      <point x="481" y="-3"/>
    </contour>
    <contour>
      <point x="560" y="15" type="curve" smooth="yes"/>
      <point x="492" y="15"/>
      <point x="453" y="63"/>
      <point x="453" y="143" type="curve" smooth="yes"/>
      <point x="453" y="243"/>
      <point x="511" y="353"/>
      <point x="612" y="353" type="curve" smooth="yes"/>
      <point x="680" y="353"/>
      <point x="719" y="305"/>
      <point x="719" y="225" type="curve" smooth="yes"/>
      <point x="719" y="125"/>
      <point x="661" y="15"/>
    </contour>
    <contour>
      <point x="908" y="-3" type="curve" smooth="yes"/>
      <point x="1019" y="-3"/>
      <point x="1088" y="111"/>
      <point x="1088" y="227" type="curve" smooth="yes"/>
      <point x="1088" y="316"/>
      <point x="1040" y="371"/>
      <point x="962" y="371" type="curve" smooth="yes"/>
      <point x="851" y="371"/>
      <point x="782" y="257"/>
      <point x="782" y="141" type="curve" smooth="yes"/>
      <point x="782" y="52"/>
      <point x="830" y="-3"/>
    </contour>
    <contour>
      <point x="909" y="15" type="curve" smooth="yes"/>
      <point x="841" y="15"/>
      <point x="802" y="63"/>
      <point x="802" y="143" type="curve" smooth="yes"/>
      <point x="802" y="243"/>
      <point x="860" y="353"/>
      <point x="961" y="353" type="curve" smooth="yes"/>
      <point x="1029" y="353"/>
      <point x="1068" y="305"/>
      <point x="1068" y="225" type="curve" smooth="yes"/>
      <point x="1068" y="125"/>
      <point x="1010" y="15"/>
    </contour>
  </outline>
</glyph>
<glyph name="guilsinglleft" format="2">
  <advance width="273"/>
  <unicode hex="2039"/>
  <outline>
    <contour>
      <point x="168" y="74" type="line"/>
      <point x="190" y="74" type="line"/>
      <point x="76" y="266" type="line"/>
      <point x="77" y="254" type="line"/>
      <point x="266" y="444" type="line"/>
      <point x="242" y="444" type="line"/>
      <point x="58" y="259" type="line"/>
    </contour>
  </outline>
</glyph>
<glyph name="commercialMinusSign" format="2">
  <advance width="465"/>
  <unicode hex="2052"/>
  <guideline x="151" y="446" angle="90"/>
  <guideline x="416" y="446" angle="90"/>
  <outline>
    <contour>
      <point x="48" y="0" type="line"/>
      <point x="68" y="0" type="line"/>
      <point x="453" y="700" type="line"/>
      <point x="433" y="700" type="line"/>
    </contour>
    <contour>
      <point x="285" y="0" type="curve" smooth="yes"/>
      <point x="300" y="0"/>
      <point x="314" y="14"/>
      <point x="314" y="29" type="curve" smooth="yes"/>
      <point x="314" y="44"/>
      <point x="300" y="58"/>
      <point x="285" y="58" type="curve" smooth="yes"/>
      <point x="270" y="58"/>
      <point x="256" y="44"/>
      <point x="256" y="29" type="curve" smooth="yes"/>
      <point x="256" y="14"/>
      <point x="270" y="0"/>
    </contour>
    <contour>
      <point x="216" y="642" type="curve" smooth="yes"/>
      <point x="231" y="642"/>
      <point x="245" y="656"/>
      <point x="245" y="671" type="curve" smooth="yes"/>
      <point x="245" y="686"/>
      <point x="231" y="700"/>
      <point x="216" y="700" type="curve" smooth="yes"/>
      <point x="201" y="700"/>
      <point x="187" y="686"/>
      <point x="187" y="671" type="curve" smooth="yes"/>
      <point x="187" y="656"/>
      <point x="201" y="642"/>
    </contour>
  </outline>
</glyph>
<glyph name="dong" format="2">
  <advance width="671"/>
  <unicode hex="20AB"/>
  <guideline x="426" y="11" angle="90"/>
  <outline>
    <contour>
      <point x="269" y="-3" type="curve" smooth="yes"/>
      <point x="440" y="-3"/>
      <point x="558" y="133"/>
      <point x="557" y="312" type="curve" smooth="yes"/>
      <point x="556" y="442"/>
      <point x="479" y="520"/>
      <point x="341" y="520" type="curve" smooth="yes"/>
      <point x="171" y="520"/>
      <point x="49" y="386"/>
      <point x="49" y="207" type="curve" smooth="yes"/>
      <point x="49" y="78"/>
      <point x="134" y="-3"/>
    </contour>
    <contour>
      <point x="-3" y="-123" type="line"/>
      <point x="481" y="-123" type="line"/>
      <point x="485" y="-104" type="line"/>
      <point x="1" y="-104" type="line"/>
    </contour>
    <contour>
      <point x="272" y="16" type="curve" smooth="yes"/>
      <point x="144" y="16"/>
      <point x="69" y="86"/>
      <point x="69" y="208" type="curve" smooth="yes"/>
      <point x="69" y="376"/>
      <point x="183" y="501"/>
      <point x="338" y="501" type="curve" smooth="yes"/>
      <point x="466" y="501"/>
      <point x="541" y="431"/>
      <point x="541" y="309" type="curve" smooth="yes"/>
      <point x="541" y="140"/>
      <point x="427" y="16"/>
    </contour>
    <contour>
      <point x="485" y="0" type="line"/>
      <point x="505" y="0" type="line"/>
      <point x="653" y="742" type="line"/>
      <point x="633" y="742" type="line"/>
      <point x="550" y="327" type="line"/>
      <point x="547" y="250" type="line"/>
      <point x="521" y="180" type="line"/>
    </contour>
    <contour>
      <point x="365" y="621" type="line"/>
      <point x="743" y="621" type="line"/>
      <point x="747" y="640" type="line"/>
      <point x="369" y="640" type="line"/>
    </contour>
  </outline>
</glyph>
<glyph name="ruble" format="2">
  <advance width="717"/>
  <unicode hex="20BD"/>
  <outline>
    <contour>
      <point x="88" y="0" type="line"/>
      <point x="108" y="0" type="line"/>
      <point x="158" y="249" type="line"/>
      <point x="147" y="240" type="line"/>
      <point x="380" y="240" type="line" smooth="yes"/>
      <point x="575" y="240"/>
      <point x="697" y="334"/>
      <point x="697" y="514" type="curve" smooth="yes"/>
      <point x="697" y="633"/>
      <point x="611" y="700"/>
      <point x="463" y="700" type="curve" smooth="yes"/>
      <point x="228" y="700" type="line"/>
    </contour>
    <contour>
      <point x="9" y="157" type="line"/>
      <point x="369" y="157" type="line"/>
      <point x="373" y="175" type="line"/>
      <point x="13" y="175" type="line"/>
    </contour>
    <contour>
      <point x="158" y="251" type="line"/>
      <point x="246" y="689" type="line"/>
      <point x="235" y="681" type="line"/>
      <point x="464" y="681" type="line" smooth="yes"/>
      <point x="601" y="681"/>
      <point x="677" y="621"/>
      <point x="677" y="514" type="curve" smooth="yes"/>
      <point x="677" y="345"/>
      <point x="568" y="259"/>
      <point x="379" y="259" type="curve" smooth="yes"/>
      <point x="151" y="259" type="line"/>
    </contour>
  </outline>
</glyph>
<glyph name="literSign" format="2">
  <advance width="462"/>
  <unicode hex="2113"/>
  <outline>
    <contour>
      <point x="242" y="0" type="curve" smooth="yes"/>
      <point x="314" y="0"/>
      <point x="374" y="39"/>
      <point x="431" y="107" type="curve"/>
      <point x="417" y="118" type="line"/>
      <point x="362" y="54"/>
      <point x="308" y="18"/>
      <point x="242" y="18" type="curve" smooth="yes"/>
      <point x="151" y="18"/>
      <point x="139" y="91"/>
      <point x="161" y="217" type="curve"/>
      <point x="343" y="361"/>
      <point x="427" y="500"/>
      <point x="427" y="598" type="curve" smooth="yes"/>
      <point x="427" y="669"/>
      <point x="382" y="699"/>
      <point x="336" y="699" type="curve" smooth="yes"/>
      <point x="275" y="699"/>
      <point x="220" y="650"/>
      <point x="199" y="550" type="curve" smooth="yes"/>
      <point x="144" y="227" type="line"/>
      <point x="64" y="164" type="line"/>
      <point x="75" y="149" type="line"/>
      <point x="139" y="200" type="line"/>
      <point x="122" y="81"/>
      <point x="139" y="0"/>
    </contour>
    <contour>
      <point x="166" y="244" type="curve"/>
      <point x="218" y="546" type="line" smooth="yes"/>
      <point x="236" y="639"/>
      <point x="285" y="681"/>
      <point x="336" y="681" type="curve" smooth="yes"/>
      <point x="374" y="681"/>
      <point x="408" y="658"/>
      <point x="408" y="598" type="curve" smooth="yes"/>
      <point x="408" y="508"/>
      <point x="329" y="373"/>
    </contour>
  </outline>
</glyph>
<glyph name="trademark" format="2">
  <advance width="1006"/>
  <unicode hex="2122"/>
  <outline>
    <contour>
      <point x="429" y="285" type="line"/>
      <point x="448" y="285" type="line"/>
      <point x="525" y="671" type="line"/>
      <point x="520" y="671" type="line"/>
      <point x="663" y="342" type="line"/>
      <point x="674" y="342" type="line"/>
      <point x="944" y="671" type="line"/>
      <point x="936" y="671" type="line"/>
      <point x="859" y="285" type="line"/>
      <point x="878" y="285" type="line"/>
      <point x="961" y="700" type="line"/>
      <point x="944" y="700" type="line"/>
      <point x="666" y="360" type="line"/>
      <point x="675" y="360" type="line"/>
      <point x="529" y="700" type="line"/>
      <point x="512" y="700" type="line"/>
    </contour>
    <contour>
      <point x="174" y="285" type="line"/>
      <point x="194" y="285" type="line"/>
      <point x="273" y="682" type="line"/>
      <point x="438" y="682" type="line"/>
      <point x="442" y="700" type="line"/>
      <point x="92" y="700" type="line"/>
      <point x="88" y="682" type="line"/>
      <point x="253" y="682" type="line"/>
    </contour>
  </outline>
</glyph>
<glyph name="estimated" format="2">
  <advance width="902"/>
  <unicode hex="212E"/>
  <outline>
    <contour>
      <point x="471" y="-3" type="curve" smooth="yes"/>
      <point x="596" y="-3"/>
      <point x="711" y="52"/>
      <point x="781" y="134" type="curve"/>
      <point x="724" y="134" type="line"/>
      <point x="664" y="64"/>
      <point x="573" y="18"/>
      <point x="472" y="18" type="curve" smooth="yes"/>
      <point x="378" y="18"/>
      <point x="286" y="53"/>
      <point x="231" y="122" type="curve" smooth="yes"/>
      <point x="227" y="128"/>
      <point x="222" y="135"/>
      <point x="222" y="145" type="curve" smooth="yes"/>
      <point x="222" y="337" type="line"/>
      <point x="222" y="340"/>
      <point x="224" y="341"/>
      <point x="228" y="341" type="curve" smooth="yes"/>
      <point x="863" y="341" type="line"/>
      <point x="863" y="349" type="line"/>
      <point x="863" y="545"/>
      <point x="688" y="703"/>
      <point x="471" y="703" type="curve" smooth="yes"/>
      <point x="255" y="703"/>
      <point x="79" y="545"/>
      <point x="79" y="349" type="curve" smooth="yes"/>
      <point x="79" y="155"/>
      <point x="255" y="-3"/>
    </contour>
    <contour>
      <point x="228" y="360" type="line"/>
      <point x="224" y="360"/>
      <point x="222" y="362"/>
      <point x="222" y="366" type="curve" smooth="yes"/>
      <point x="222" y="555" type="line"/>
      <point x="222" y="565"/>
      <point x="227" y="573"/>
      <point x="232" y="579" type="curve" smooth="yes"/>
      <point x="294" y="641"/>
      <point x="378" y="682"/>
      <point x="472" y="682" type="curve" smooth="yes"/>
      <point x="565" y="682"/>
      <point x="649" y="643"/>
      <point x="710" y="582" type="curve" smooth="yes"/>
      <point x="716" y="577"/>
      <point x="721" y="568"/>
      <point x="721" y="559" type="curve" smooth="yes"/>
      <point x="721" y="366" type="line"/>
      <point x="721" y="362"/>
      <point x="718" y="360"/>
      <point x="715" y="360" type="curve" smooth="yes"/>
    </contour>
  </outline>
</glyph>
<glyph name="leftArrow" format="2">
  <advance width="600"/>
  <unicode hex="2190"/>
  <outline>
    <contour>
      <point x="251" y="93" type="line"/>
      <point x="278" y="93" type="line"/>
      <point x="153" y="269" type="line"/>
      <point x="278" y="448" type="line"/>
      <point x="251" y="448" type="line"/>
      <point x="125" y="269" type="line"/>
    </contour>
    <contour>
      <point x="145" y="260" type="line"/>
      <point x="512" y="260" type="line"/>
      <point x="512" y="280" type="line"/>
      <point x="145" y="280" type="line"/>
    </contour>
  </outline>
</glyph>
<glyph name="upDownArrow" format="2">
  <advance width="600"/>
  <unicode hex="2195"/>
  <outline>
    <contour>
      <point x="122" y="447" type="line"/>
      <point x="298" y="572" type="line"/>
      <point x="478" y="447" type="line"/>
      <point x="478" y="474" type="line"/>
      <point x="298" y="600" type="line"/>
      <point x="122" y="474" type="line"/>
    </contour>
    <contour>
      <point x="300" y="74" type="line"/>
      <point x="476" y="200" type="line"/>
      <point x="476" y="227" type="line"/>
      <point x="300" y="102" type="line"/>
      <point x="120" y="227" type="line"/>
      <point x="120" y="200" type="line"/>
    </contour>
    <contour>
      <point x="288" y="92" type="line"/>
      <point x="310" y="92" type="line"/>
      <point x="310" y="580" type="line"/>
      <point x="288" y="580" type="line"/>
    </contour>
  </outline>
</glyph>
<glyph name="summation" format="2">
  <advance width="639"/>
  <unicode hex="2211"/>
  <outline>
    <contour>
      <point x="-41" y="-194" type="line"/>
      <point x="509" y="-194" type="line"/>
      <point x="513" y="-175" type="line"/>
      <point x="-18" y="-175" type="line"/>
      <point x="-15" y="-184" type="line"/>
      <point x="424" y="246" type="line"/>
      <point x="427" y="261" type="line"/>
      <point x="168" y="686" type="line"/>
      <point x="163" y="681" type="line"/>
      <point x="679" y="681" type="line"/>
      <point x="683" y="700" type="line"/>
      <point x="148" y="700" type="line"/>
      <point x="145" y="685" type="line"/>
      <point x="410" y="249" type="line"/>
      <point x="413" y="263" type="line"/>
      <point x="-38" y="-179" type="line"/>
    </contour>
  </outline>
</glyph>
<glyph name="approxequal" format="2">
  <advance width="560"/>
  <unicode hex="2248"/>
  <outline>
    <contour>
      <point x="412" y="395" type="curve" smooth="yes"/>
      <point x="477" y="395"/>
      <point x="524" y="442"/>
      <point x="543" y="520" type="curve"/>
      <point x="524" y="520" type="line"/>
      <point x="509" y="455"/>
      <point x="468" y="413"/>
      <point x="413" y="413" type="curve" smooth="yes"/>
      <point x="333" y="413"/>
      <point x="323" y="523"/>
      <point x="228" y="523" type="curve" smooth="yes"/>
      <point x="163" y="523"/>
      <point x="116" y="476"/>
      <point x="97" y="398" type="curve"/>
      <point x="116" y="398" type="line"/>
      <point x="131" y="463"/>
      <point x="172" y="505"/>
      <point x="227" y="505" type="curve" smooth="yes"/>
      <point x="307" y="505"/>
      <point x="317" y="395"/>
    </contour>
    <contour>
      <point x="368" y="177" type="curve" smooth="yes"/>
      <point x="433" y="177"/>
      <point x="480" y="224"/>
      <point x="499" y="302" type="curve"/>
      <point x="480" y="302" type="line"/>
      <point x="465" y="237"/>
      <point x="424" y="195"/>
      <point x="369" y="195" type="curve" smooth="yes"/>
      <point x="289" y="195"/>
      <point x="279" y="305"/>
      <point x="184" y="305" type="curve" smooth="yes"/>
      <point x="119" y="305"/>
      <point x="72" y="258"/>
      <point x="53" y="180" type="curve"/>
      <point x="72" y="180" type="line"/>
      <point x="87" y="245"/>
      <point x="128" y="287"/>
      <point x="183" y="287" type="curve" smooth="yes"/>
      <point x="263" y="287"/>
      <point x="273" y="177"/>
    </contour>
  </outline>
</glyph>
<glyph name="leftWhiteTriangle" format="2">
  <advance width="600"/>
  <unicode hex="25C1"/>
  <outline>
    <contour>
      <point x="484" y="52" type="line"/>
      <point x="484" y="478" type="line"/>
      <point x="58" y="265" type="line"/>
    </contour>
    <contour>
      <point x="464" y="84" type="line"/>
      <point x="103" y="265" type="line"/>
      <point x="464" y="446" type="line"/>
    </contour>
  </outline>
</glyph>
<glyph name="leftanglebracket-math" format="2">
  <advance width="302"/>
  <unicode hex="27E8"/>
  <outline>
    <contour>
      <point x="127" y="-194" type="line"/>
      <point x="144" y="-194" type="line"/>
      <point x="82" y="274" type="line"/>
      <point x="331" y="742" type="line"/>
      <point x="314" y="742" type="line"/>
      <point x="62" y="274" type="line"/>
    </contour>
  </outline>
</glyph>
<glyph name="rightanglebracket-math" format="2">
  <advance width="303"/>
  <unicode hex="27E9"/>
  <outline>
    <contour>
      <point x="182" y="742" type="line"/>
      <point x="165" y="742" type="line"/>
      <point x="227" y="274" type="line"/>
      <point x="-22" y="-194" type="line"/>
      <point x="-5" y="-194" type="line"/>
      <point x="247" y="274" type="line"/>
    </contour>
  </outline>
</glyph>
<glyph name="De-cy.loclBGR" format="2">
  <advance width="733"/>
  <outline>
    <contour>
      <point x="-76" y="-165" type="line"/>
      <point x="-56" y="-165" type="line"/>
      <point x="-23" y="0" type="line"/>
      <point x="651" y="0" type="line"/>
      <point x="618" y="-165" type="line"/>
      <point x="638" y="-165" type="line"/>
      <point x="675" y="19" type="line"/>
      <point x="-39" y="19" type="line"/>
    </contour>
    <contour>
      <point x="464" y="700" type="line"/>
      <point x="444" y="700" type="line"/>
      <point x="24" y="0" type="line"/>
      <point x="48" y="0" type="line"/>
      <point x="456" y="684" type="line"/>
      <point x="446" y="684" type="line"/>
      <point x="582" y="0" type="line"/>
      <point x="604" y="0" type="line"/>
    </contour>
  </outline>
</glyph>
<glyph name="E.ss01" format="2">
  <advance width="614"/>
  <guideline x="764" y="250" angle="90"/>
  <anchor x="282" y="0" name="bottom"/>
  <anchor x="509" y="0" name="ogonek"/>
  <anchor x="422" y="700" name="top"/>
  <anchor x="154" y="700" name="topleft"/>
  <outline>
    <contour>
      <point x="279" y="-3" type="curve" smooth="yes"/>
      <point x="396" y="-3"/>
      <point x="500" y="33"/>
      <point x="555" y="91" type="curve"/>
      <point x="541" y="106" type="line"/>
      <point x="488" y="50"/>
      <point x="391" y="16"/>
      <point x="282" y="16" type="curve" smooth="yes"/>
      <point x="143" y="16"/>
      <point x="66" y="68"/>
      <point x="66" y="161" type="curve" smooth="yes"/>
      <point x="66" y="274"/>
      <point x="164" y="346"/>
      <point x="321" y="346" type="curve" smooth="yes"/>
      <point x="484" y="346" type="line"/>
      <point x="488" y="365" type="line"/>
      <point x="324" y="365" type="line" smooth="yes"/>
      <point x="222" y="365"/>
      <point x="163" y="414"/>
      <point x="163" y="496" type="curve" smooth="yes"/>
      <point x="163" y="609"/>
      <point x="264" y="684"/>
      <point x="413" y="684" type="curve" smooth="yes"/>
      <point x="494" y="684"/>
      <point x="559" y="666"/>
      <point x="617" y="627" type="curve"/>
      <point x="629" y="644" type="line"/>
      <point x="573" y="683"/>
      <point x="498" y="703"/>
      <point x="414" y="703" type="curve" smooth="yes"/>
      <point x="253" y="703"/>
      <point x="144" y="621"/>
      <point x="144" y="494" type="curve" smooth="yes"/>
      <point x="144" y="405"/>
      <point x="209" y="349"/>
      <point x="314" y="349" type="curve"/>
      <point x="312" y="362" type="line"/>
      <point x="151" y="362"/>
      <point x="46" y="283"/>
      <point x="46" y="159" type="curve" smooth="yes"/>
      <point x="46" y="57"/>
      <point x="132" y="-3"/>
    </contour>
  </outline>
</glyph>
<glyph name="Eng.ss01" format="2">
  <advance width="800"/>
  <outline>
    <contour>
      <point x="488" y="703" type="curve" smooth="yes"/>
      <point x="362" y="703"/>
      <point x="260" y="647"/>
      <point x="202" y="526" type="curve"/>
      <point x="206" y="524" type="line"/>
      <point x="241" y="700" type="line"/>
      <point x="221" y="700" type="line"/>
      <point x="81" y="0" type="line"/>
      <point x="101" y="0" type="line"/>
      <point x="186" y="423" type="line" smooth="yes"/>
      <point x="222" y="601"/>
      <point x="335" y="684"/>
      <point x="486" y="684" type="curve" smooth="yes"/>
      <point x="645" y="684"/>
      <point x="720" y="592"/>
      <point x="683" y="410" type="curve" smooth="yes"/>
      <point x="601" y="2" type="line" smooth="yes"/>
      <point x="574" y="-131"/>
      <point x="517" y="-178"/>
      <point x="424" y="-178" type="curve" smooth="yes"/>
      <point x="351" y="-178"/>
      <point x="297" y="-143"/>
      <point x="272" y="-88" type="curve"/>
      <point x="254" y="-98" type="line"/>
      <point x="279" y="-157"/>
      <point x="342" y="-197"/>
      <point x="421" y="-197" type="curve" smooth="yes"/>
      <point x="527" y="-197"/>
      <point x="592" y="-145"/>
      <point x="620" y="-4" type="curve" smooth="yes"/>
      <point x="703" y="411" type="line" smooth="yes"/>
      <point x="741" y="603"/>
      <point x="654" y="703"/>
    </contour>
  </outline>
</glyph>
<glyph name="F.ss01" format="2">
  <advance width="596"/>
  <outline>
    <contour>
      <point x="76" y="0" type="line"/>
      <point x="96" y="0" type="line"/>
      <point x="192" y="479" type="line" smooth="yes"/>
      <point x="218" y="611"/>
      <point x="302" y="684"/>
      <point x="459" y="684" type="curve" smooth="yes"/>
      <point x="535" y="684"/>
      <point x="595" y="667"/>
      <point x="641" y="628" type="curve"/>
      <point x="654" y="642" type="line"/>
      <point x="607" y="684"/>
      <point x="538" y="703"/>
      <point x="460" y="703" type="curve" smooth="yes"/>
      <point x="292" y="703"/>
      <point x="200" y="624"/>
      <point x="172" y="482" type="curve" smooth="yes"/>
    </contour>
    <contour>
      <point x="157" y="326" type="line"/>
      <point x="524" y="326" type="line"/>
      <point x="528" y="345" type="line"/>
      <point x="161" y="345" type="line"/>
    </contour>
  </outline>
</glyph>
<glyph name="N.ss01" format="2">
  <advance width="800"/>
  <anchor x="349" y="0" name="bottom"/>
  <anchor x="491" y="700" name="top"/>
  <outline>
    <contour>
      <point x="488" y="703" type="curve" smooth="yes"/>
      <point x="362" y="703"/>
      <point x="260" y="647"/>
      <point x="202" y="526" type="curve"/>
      <point x="206" y="524" type="line"/>
      <point x="241" y="700" type="line"/>
      <point x="221" y="700" type="line"/>
      <point x="81" y="0" type="line"/>
      <point x="101" y="0" type="line"/>
      <point x="186" y="423" type="line" smooth="yes"/>
      <point x="222" y="601"/>
      <point x="335" y="684"/>
      <point x="486" y="684" type="curve" smooth="yes"/>
      <point x="645" y="684"/>
      <point x="719" y="592"/>
      <point x="683" y="410" type="curve" smooth="yes"/>
      <point x="601" y="0" type="line"/>
      <point x="621" y="0" type="line"/>
      <point x="703" y="411" type="line" smooth="yes"/>
      <point x="741" y="603"/>
      <point x="654" y="703"/>
    </contour>
  </outline>
</glyph>
<glyph name="T.ss01" format="2">
  <advance width="548"/>
  <anchor x="222" y="0" name="bottom"/>
  <anchor x="212" y="0" name="bottomleft"/>
  <anchor x="292" y="350" name="center"/>
  <anchor x="362" y="699" name="top"/>
  <outline>
    <contour>
      <point x="92" y="615" type="line"/>
      <point x="162" y="659"/>
      <point x="257" y="684"/>
      <point x="354" y="684" type="curve" smooth="yes"/>
      <point x="456" y="684"/>
      <point x="545" y="660"/>
      <point x="610" y="615" type="curve"/>
      <point x="622" y="631" type="line"/>
      <point x="549" y="680"/>
      <point x="461" y="703"/>
      <point x="355" y="703" type="curve" smooth="yes"/>
      <point x="256" y="703"/>
      <point x="159" y="678"/>
      <point x="82" y="631" type="curve"/>
    </contour>
    <contour>
      <point x="212" y="0" type="line"/>
      <point x="232" y="0" type="line"/>
      <point x="370" y="690" type="line"/>
      <point x="350" y="690" type="line"/>
    </contour>
  </outline>
</glyph>
<glyph name="U.ss01" format="2">
  <advance width="800"/>
  <anchor x="345" y="0" name="bottom"/>
  <anchor x="615" y="0" name="ogonek"/>
  <anchor x="485" y="700" name="top"/>
  <anchor x="748" y="700" name="topright"/>
  <outline>
    <contour>
      <point x="348" y="-3" type="curve" smooth="yes"/>
      <point x="474" y="-3"/>
      <point x="576" y="53"/>
      <point x="634" y="174" type="curve"/>
      <point x="630" y="176" type="line"/>
      <point x="595" y="0" type="line"/>
      <point x="615" y="0" type="line"/>
      <point x="755" y="700" type="line"/>
      <point x="735" y="700" type="line"/>
      <point x="650" y="277" type="line" smooth="yes"/>
      <point x="614" y="99"/>
      <point x="501" y="16"/>
      <point x="350" y="16" type="curve" smooth="yes"/>
      <point x="191" y="16"/>
      <point x="117" y="108"/>
      <point x="153" y="290" type="curve" smooth="yes"/>
      <point x="235" y="700" type="line"/>
      <point x="215" y="700" type="line"/>
      <point x="133" y="289" type="line" smooth="yes"/>
      <point x="95" y="97"/>
      <point x="182" y="-3"/>
    </contour>
  </outline>
</glyph>
<glyph name="W.ss01" format="2">
  <advance width="1195"/>
  <anchor x="545" y="0" name="bottom"/>
  <anchor x="689" y="700" name="top"/>
  <outline>
    <contour>
      <point x="316" y="-3" type="curve" smooth="yes"/>
      <point x="427" y="-3"/>
      <point x="522" y="51"/>
      <point x="578" y="182" type="curve"/>
      <point x="574" y="182" type="line"/>
      <point x="573" y="59"/>
      <point x="645" y="-3"/>
      <point x="773" y="-3" type="curve" smooth="yes"/>
      <point x="928" y="-3"/>
      <point x="1022" y="83"/>
      <point x="1062" y="266" type="curve" smooth="yes"/>
      <point x="1156" y="700" type="line"/>
      <point x="1136" y="700" type="line"/>
      <point x="1044" y="268" type="line" smooth="yes"/>
      <point x="1007" y="97"/>
      <point x="919" y="16"/>
      <point x="774" y="16" type="curve" smooth="yes"/>
      <point x="631" y="16"/>
      <point x="568" y="96"/>
      <point x="603" y="259" type="curve" smooth="yes"/>
      <point x="698" y="700" type="line"/>
      <point x="678" y="700" type="line"/>
      <point x="587" y="279" type="line" smooth="yes"/>
      <point x="548" y="97"/>
      <point x="451" y="16"/>
      <point x="317" y="16" type="curve" smooth="yes"/>
      <point x="175" y="16"/>
      <point x="112" y="96"/>
      <point x="147" y="259" type="curve" smooth="yes"/>
      <point x="242" y="700" type="line"/>
      <point x="222" y="700" type="line"/>
      <point x="127" y="258" type="line" smooth="yes"/>
      <point x="90" y="85"/>
      <point x="166" y="-3"/>
    </contour>
  </outline>
</glyph>
<glyph name="Z.ss01" format="2">
  <advance width="649"/>
  <anchor x="288" y="0" name="bottom"/>
  <anchor x="418" y="700" name="top"/>
  <outline>
    <contour>
      <point x="3" y="0" type="line"/>
      <point x="553" y="0" type="line"/>
      <point x="557" y="19" type="line"/>
      <point x="32" y="19" type="line"/>
      <point x="30" y="12" type="line"/>
      <point x="680" y="685" type="line"/>
      <point x="683" y="700" type="line"/>
      <point x="148" y="700" type="line"/>
      <point x="144" y="681" type="line"/>
      <point x="654" y="681" type="line"/>
      <point x="655" y="688" type="line"/>
      <point x="6" y="15" type="line"/>
    </contour>
    <contour>
      <point x="138" y="346" type="line"/>
      <point x="333" y="346" type="line"/>
      <point x="340" y="346" type="line"/>
      <point x="538" y="346" type="line"/>
      <point x="542" y="365" type="line"/>
      <point x="358" y="365" type="line"/>
      <point x="351" y="365" type="line"/>
      <point x="142" y="365" type="line"/>
    </contour>
  </outline>
</glyph>
<glyph name="a.ss01" format="2">
  <advance width="703"/>
  <anchor x="265" y="0" name="bottom"/>
  <anchor x="618" y="0" name="ogonek"/>
  <anchor x="368" y="517" name="top"/>
  <outline>
    <contour>
      <point x="269" y="-3" type="curve" smooth="yes"/>
      <point x="440" y="-3"/>
      <point x="558" y="133"/>
      <point x="557" y="312" type="curve" smooth="yes"/>
      <point x="556" y="442"/>
      <point x="479" y="520"/>
      <point x="341" y="520" type="curve" smooth="yes"/>
      <point x="171" y="520"/>
      <point x="49" y="386"/>
      <point x="49" y="207" type="curve" smooth="yes"/>
      <point x="49" y="78"/>
      <point x="134" y="-3"/>
    </contour>
    <contour>
      <point x="272" y="16" type="curve" smooth="yes"/>
      <point x="144" y="16"/>
      <point x="69" y="86"/>
      <point x="69" y="208" type="curve" smooth="yes"/>
      <point x="69" y="376"/>
      <point x="183" y="501"/>
      <point x="338" y="501" type="curve" smooth="yes"/>
      <point x="466" y="501"/>
      <point x="541" y="431"/>
      <point x="541" y="309" type="curve" smooth="yes"/>
      <point x="541" y="140"/>
      <point x="427" y="16"/>
    </contour>
    <contour>
      <point x="604" y="-3" type="curve" smooth="yes"/>
      <point x="621" y="-3"/>
      <point x="644" y="1"/>
      <point x="658" y="7" type="curve"/>
      <point x="659" y="26" type="line"/>
      <point x="646" y="20"/>
      <point x="627" y="16"/>
      <point x="605" y="16" type="curve" smooth="yes"/>
      <point x="540" y="16"/>
      <point x="516" y="58"/>
      <point x="531" y="132" type="curve" smooth="yes"/>
      <point x="608" y="517" type="line"/>
      <point x="588" y="517" type="line"/>
      <point x="550" y="327" type="line"/>
      <point x="547" y="250" type="line"/>
      <point x="521" y="180" type="line"/>
      <point x="510" y="126" type="line" smooth="yes"/>
      <point x="495" y="48"/>
      <point x="528" y="-3"/>
    </contour>
  </outline>
</glyph>
<glyph name="ae.sc" format="2">
  <advance width="820"/>
  <anchor x="341" y="0" name="bottom"/>
  <anchor x="454" y="559" name="top"/>
  <outline>
    <contour>
      <point x="-43" y="0" type="line"/>
      <point x="-19" y="0" type="line"/>
      <point x="440" y="546" type="line"/>
      <point x="425" y="540" type="line"/>
      <point x="446" y="540" type="line"/>
      <point x="449" y="559" type="line"/>
      <point x="427" y="559" type="line"/>
    </contour>
    <contour>
      <point x="109" y="169" type="line"/>
      <point x="370" y="169" type="line"/>
      <point x="374" y="188" type="line"/>
      <point x="120" y="188" type="line"/>
    </contour>
    <contour>
      <point x="331" y="0" type="line"/>
      <point x="710" y="0" type="line"/>
      <point x="714" y="19" type="line"/>
      <point x="355" y="19" type="line"/>
      <point x="459" y="540" type="line"/>
      <point x="807" y="540" type="line"/>
      <point x="811" y="559" type="line"/>
      <point x="443" y="559" type="line"/>
    </contour>
    <contour>
      <point x="402" y="274" type="line"/>
      <point x="717" y="274" type="line"/>
      <point x="721" y="293" type="line"/>
      <point x="406" y="293" type="line"/>
    </contour>
  </outline>
</glyph>
<glyph name="caroncomb.loclVIET" format="2">
  <anchor x="351" y="517" name="_top"/>
  <anchor x="369" y="607" name="top"/>
  <outline>
    <contour>
      <point x="361" y="607" type="line"/>
      <point x="391" y="607" type="line"/>
      <point x="524" y="687" type="line"/>
      <point x="493" y="687" type="line"/>
      <point x="371" y="620" type="line"/>
      <point x="381" y="620" type="line"/>
      <point x="277" y="687" type="line"/>
      <point x="248" y="687" type="line"/>
    </contour>
  </outline>
</glyph>
<glyph name="circumflexcomb.narrow" format="2">
  <anchor x="351" y="517" name="_top"/>
  <anchor x="378" y="650" name="top"/>
  <outline>
    <contour>
      <point x="256" y="607" type="line"/>
      <point x="284" y="607" type="line"/>
      <point x="382" y="703" type="line"/>
      <point x="378" y="703" type="line"/>
      <point x="456" y="607" type="line"/>
      <point x="482" y="607" type="line"/>
      <point x="396" y="717" type="line"/>
      <point x="366" y="717" type="line"/>
    </contour>
  </outline>
</glyph>
<glyph name="commaaccentcomb.alt" format="2">
  <anchor x="351" y="517" name="_top"/>
  <outline>
    <contour>
      <point x="423" y="809" type="line"/>
      <point x="405" y="809" type="line"/>
      <point x="365" y="729" type="line" smooth="yes"/>
      <point x="359" y="718"/>
      <point x="356" y="711"/>
      <point x="356" y="700" type="curve" smooth="yes"/>
      <point x="356" y="686"/>
      <point x="367" y="674"/>
      <point x="383" y="674" type="curve" smooth="yes"/>
      <point x="397" y="674"/>
      <point x="408" y="686"/>
      <point x="408" y="700" type="curve" smooth="yes"/>
      <point x="408" y="714"/>
      <point x="396" y="726"/>
      <point x="382" y="726" type="curve"/>
      <point x="383" y="715" type="line"/>
    </contour>
  </outline>
</glyph>
<glyph name="d.sc" format="2">
  <advance width="693"/>
  <anchor x="284" y="0" name="bottom"/>
  <anchor x="183" y="284" name="center"/>
  <anchor x="392" y="559" name="top"/>
  <outline>
    <contour>
      <point x="70" y="0" type="line"/>
      <point x="293" y="0" type="line" smooth="yes"/>
      <point x="509" y="0"/>
      <point x="646" y="141"/>
      <point x="646" y="335" type="curve" smooth="yes"/>
      <point x="646" y="469"/>
      <point x="555" y="559"/>
      <point x="386" y="559" type="curve" smooth="yes"/>
      <point x="182" y="559" type="line"/>
    </contour>
    <contour>
      <point x="94" y="19" type="line"/>
      <point x="198" y="540" type="line"/>
      <point x="384" y="540" type="line" smooth="yes"/>
      <point x="546" y="540"/>
      <point x="626" y="458"/>
      <point x="626" y="335" type="curve" smooth="yes"/>
      <point x="626" y="151"/>
      <point x="497" y="19"/>
      <point x="295" y="19" type="curve" smooth="yes"/>
    </contour>
  </outline>
</glyph>
<glyph name="descender-cy.case" format="2">
  <advance width="300"/>
  <anchor x="-3" y="0" name="_bottomleft"/>
  <outline>
    <contour>
      <point x="81" y="-165" type="line"/>
      <point x="101" y="-165" type="line"/>
      <point x="137" y="19" type="line"/>
      <point x="2" y="19" type="line"/>
      <point x="-3" y="0" type="line"/>
      <point x="123" y="0" type="line"/>
      <point x="115" y="9" type="line"/>
    </contour>
  </outline>
</glyph>
<glyph name="dotaccentcomb.i" format="2">
  <anchor x="351" y="517" name="_top"/>
  <anchor x="378" y="649" name="top"/>
  <outline>
    <contour>
      <point x="383" y="660" type="curve" smooth="yes"/>
      <point x="398" y="660"/>
      <point x="411" y="673"/>
      <point x="411" y="688" type="curve" smooth="yes"/>
      <point x="411" y="701"/>
      <point x="400" y="712"/>
      <point x="387" y="712" type="curve" smooth="yes"/>
      <point x="372" y="712"/>
      <point x="359" y="699"/>
      <point x="359" y="684" type="curve" smooth="yes"/>
      <point x="359" y="671"/>
      <point x="370" y="660"/>
    </contour>
  </outline>
</glyph>
<glyph name="eng.sc.ss01" format="2">
  <advance width="678"/>
  <outline>
    <contour>
      <point x="347" y="-158" type="curve" smooth="yes"/>
      <point x="434" y="-158"/>
      <point x="487" y="-116"/>
      <point x="510" y="-1" type="curve" smooth="yes"/>
      <point x="576" y="328" type="line" smooth="yes"/>
      <point x="607" y="482"/>
      <point x="537" y="562"/>
      <point x="402" y="562" type="curve" smooth="yes"/>
      <point x="300" y="562"/>
      <point x="218" y="518"/>
      <point x="171" y="422" type="curve"/>
      <point x="174" y="419" type="line"/>
      <point x="202" y="559" type="line"/>
      <point x="182" y="559" type="line"/>
      <point x="70" y="0" type="line"/>
      <point x="90" y="0" type="line"/>
      <point x="157" y="337" type="line" smooth="yes"/>
      <point x="185" y="478"/>
      <point x="278" y="543"/>
      <point x="399" y="543" type="curve" smooth="yes"/>
      <point x="527" y="543"/>
      <point x="585" y="470"/>
      <point x="556" y="327" type="curve" smooth="yes"/>
      <point x="491" y="3" type="line" smooth="yes"/>
      <point x="470" y="-102"/>
      <point x="424" y="-139"/>
      <point x="349" y="-139" type="curve" smooth="yes"/>
      <point x="291" y="-139"/>
      <point x="248" y="-111"/>
      <point x="228" y="-68" type="curve"/>
      <point x="211" y="-80" type="line"/>
      <point x="232" y="-126"/>
      <point x="283" y="-158"/>
    </contour>
  </outline>
</glyph>
<glyph name="er-cy.ss01" format="2">
  <advance width="653"/>
  <anchor x="287" y="0" name="bottom"/>
  <anchor x="391" y="517" name="top"/>
  <outline>
    <contour>
      <point x="380" y="520" type="curve" smooth="yes"/>
      <point x="232" y="520"/>
      <point x="120" y="424"/>
      <point x="90" y="269" type="curve" smooth="yes"/>
      <point x="1" y="-194" type="line"/>
      <point x="21" y="-194" type="line"/>
      <point x="99" y="202" type="line"/>
      <point x="90" y="184" type="line"/>
      <point x="101" y="74"/>
      <point x="176" y="-3"/>
      <point x="303" y="-3" type="curve" smooth="yes"/>
      <point x="470" y="-3"/>
      <point x="597" y="129"/>
      <point x="597" y="301" type="curve" smooth="yes"/>
      <point x="597" y="439"/>
      <point x="516" y="520"/>
    </contour>
    <contour>
      <point x="304" y="16" type="curve" smooth="yes"/>
      <point x="167" y="16"/>
      <point x="105" y="112"/>
      <point x="105" y="219" type="curve" smooth="yes"/>
      <point x="105" y="352"/>
      <point x="201" y="501"/>
      <point x="379" y="501" type="curve" smooth="yes"/>
      <point x="504" y="501"/>
      <point x="577" y="427"/>
      <point x="577" y="300" type="curve" smooth="yes"/>
      <point x="577" y="139"/>
      <point x="459" y="16"/>
    </contour>
  </outline>
</glyph>
<glyph name="ghestroke-cy.loclBSH" format="2">
  <advance width="464"/>
  <outline>
    <contour>
      <point x="64" y="0" type="line"/>
      <point x="84" y="0" type="line"/>
      <point x="184" y="498" type="line"/>
      <point x="510" y="498" type="line"/>
      <point x="514" y="517" type="line"/>
      <point x="168" y="517" type="line"/>
    </contour>
    <contour>
      <point x="121" y="232" type="line"/>
      <point x="351" y="232" type="line"/>
      <point x="355" y="251" type="line"/>
      <point x="125" y="251" type="line"/>
    </contour>
  </outline>
</glyph>
<glyph name="gstroke.sc" format="2">
  <advance width="668"/>
  <outline>
    <contour>
      <point x="334.23" y="182" type="line"/>
      <point x="626.802" y="182" type="line"/>
      <point x="629.898" y="201" type="line"/>
      <point x="337.326" y="201" type="line"/>
    </contour>
    <component base="g.sc"/>
  </outline>
</glyph>
<glyph name="gstroke.sc.ss01" format="2">
  <advance width="673"/>
  <outline>
    <contour>
      <point x="334.23" y="182" type="line"/>
      <point x="626.802" y="182" type="line"/>
      <point x="629.898" y="201" type="line"/>
      <point x="337.326" y="201" type="line"/>
    </contour>
    <component base="g.sc.ss01"/>
  </outline>
</glyph>
<glyph name="i.sc.ss01" format="2">
  <advance width="402"/>
  <anchor x="149" y="0" name="bottom"/>
  <anchor x="159" y="0" name="ogonek"/>
  <anchor x="261" y="559" name="top"/>
  <anchor x="94" y="559" name="topleft"/>
  <outline>
    <contour>
      <point x="141" y="8" type="line"/>
      <point x="161" y="8" type="line"/>
      <point x="269" y="551" type="line"/>
      <point x="249" y="551" type="line"/>
    </contour>
    <contour>
      <point x="16" y="0" type="line"/>
      <point x="282" y="0" type="line"/>
      <point x="286" y="19" type="line"/>
      <point x="20" y="19" type="line"/>
    </contour>
    <contour>
      <point x="124" y="540" type="line"/>
      <point x="390" y="540" type="line"/>
      <point x="394" y="559" type="line"/>
      <point x="128" y="559" type="line"/>
    </contour>
  </outline>
</glyph>
<glyph name="oe.ss01" format="2">
  <advance width="1071"/>
  <anchor x="492" y="0" name="bottom"/>
  <anchor x="595" y="517" name="top"/>
  <outline>
    <contour>
      <point x="269" y="-3" type="curve" smooth="yes"/>
      <point x="439" y="-3"/>
      <point x="559" y="130"/>
      <point x="559" y="310" type="curve" smooth="yes"/>
      <point x="559" y="439"/>
      <point x="476" y="520"/>
      <point x="341" y="520" type="curve" smooth="yes"/>
      <point x="171" y="520"/>
      <point x="49" y="386"/>
      <point x="49" y="207" type="curve" smooth="yes"/>
      <point x="49" y="78"/>
      <point x="134" y="-3"/>
    </contour>
    <contour>
      <point x="272" y="16" type="curve" smooth="yes"/>
      <point x="144" y="16"/>
      <point x="69" y="86"/>
      <point x="69" y="208" type="curve" smooth="yes"/>
      <point x="69" y="376"/>
      <point x="183" y="501"/>
      <point x="338" y="501" type="curve" smooth="yes"/>
      <point x="466" y="501"/>
      <point x="541" y="431"/>
      <point x="541" y="309" type="curve" smooth="yes"/>
      <point x="541" y="140"/>
      <point x="427" y="16"/>
    </contour>
    <contour>
      <point x="762" y="-3" type="curve" smooth="yes"/>
      <point x="846" y="-3"/>
      <point x="921" y="30"/>
      <point x="963" y="80" type="curve"/>
      <point x="951" y="93" type="line"/>
      <point x="909" y="45"/>
      <point x="841" y="16"/>
      <point x="763" y="16" type="curve" smooth="yes"/>
      <point x="627" y="16"/>
      <point x="553" y="85"/>
      <point x="553" y="210" type="curve" smooth="yes"/>
      <point x="553" y="377"/>
      <point x="663" y="501"/>
      <point x="810" y="501" type="curve" smooth="yes"/>
      <point x="937" y="501"/>
      <point x="1012" y="419"/>
      <point x="1002" y="292" type="curve"/>
      <point x="1012" y="306" type="line"/>
      <point x="541" y="216" type="line"/>
      <point x="545" y="198" type="line"/>
      <point x="1020" y="289" type="line"/>
      <point x="1029" y="431"/>
      <point x="949" y="520"/>
      <point x="810" y="520" type="curve" smooth="yes"/>
      <point x="651" y="520"/>
      <point x="535" y="386"/>
      <point x="535" y="210" type="curve" smooth="yes"/>
      <point x="535" y="74"/>
      <point x="619" y="-3"/>
    </contour>
  </outline>
</glyph>
<glyph name="one.tosf" format="2">
  <advance width="700"/>
  <outline>
    <contour>
      <point x="316" y="0" type="line"/>
      <point x="335" y="0" type="line"/>
      <point x="455" y="600" type="line"/>
      <point x="236" y="600" type="line"/>
      <point x="232" y="581" type="line"/>
      <point x="441" y="581" type="line"/>
      <point x="434" y="589" type="line"/>
    </contour>
    <contour>
      <point x="110" y="19" type="line"/>
      <point x="106" y="0" type="line"/>
      <point x="525" y="0" type="line"/>
      <point x="529" y="19" type="line"/>
    </contour>
  </outline>
</glyph>
<glyph name="period.sc" format="2">
  <advance width="182"/>
  <outline>
    <contour>
      <point x="44" y="-3" type="curve" smooth="yes"/>
      <point x="58" y="-3"/>
      <point x="70" y="9"/>
      <point x="70" y="23" type="curve" smooth="yes"/>
      <point x="70" y="37"/>
      <point x="58" y="49"/>
      <point x="44" y="49" type="curve" smooth="yes"/>
      <point x="30" y="49"/>
      <point x="18" y="37"/>
      <point x="18" y="23" type="curve" smooth="yes"/>
      <point x="18" y="9"/>
      <point x="30" y="-3"/>
    </contour>
  </outline>
</glyph>
<glyph name="quoteleft.sc" format="2">
  <advance width="179"/>
  <outline>
    <contour>
      <point x="175" y="559" type="line"/>
      <point x="157" y="559" type="line"/>
      <point x="105" y="445" type="line" smooth="yes"/>
      <point x="100" y="434"/>
      <point x="96" y="427"/>
      <point x="96" y="416" type="curve" smooth="yes"/>
      <point x="96" y="402"/>
      <point x="108" y="390"/>
      <point x="122" y="390" type="curve" smooth="yes"/>
      <point x="136" y="390"/>
      <point x="148" y="402"/>
      <point x="148" y="416" type="curve" smooth="yes"/>
      <point x="148" y="430"/>
      <point x="136" y="442"/>
      <point x="122" y="442" type="curve"/>
      <point x="123" y="431" type="line"/>
    </contour>
  </outline>
</glyph>
<glyph name="quoteright.sc" format="2">
  <advance width="179"/>
  <outline>
    <contour>
      <point x="91" y="393" type="line"/>
      <point x="109" y="393" type="line"/>
      <point x="161" y="507" type="line" smooth="yes"/>
      <point x="166" y="518"/>
      <point x="170" y="525"/>
      <point x="170" y="536" type="curve" smooth="yes"/>
      <point x="170" y="550"/>
      <point x="158" y="562"/>
      <point x="144" y="562" type="curve" smooth="yes"/>
      <point x="130" y="562"/>
      <point x="118" y="550"/>
      <point x="118" y="536" type="curve" smooth="yes"/>
      <point x="118" y="522"/>
      <point x="130" y="510"/>
      <point x="144" y="510" type="curve"/>
      <point x="143" y="521" type="line"/>
    </contour>
  </outline>
</glyph>
<glyph name="s.sc" format="2">
  <advance width="507"/>
  <anchor x="215" y="0" name="bottom"/>
  <anchor x="327" y="559" name="top"/>
  <outline>
    <contour>
      <point x="211" y="-3" type="curve" smooth="yes"/>
      <point x="329" y="-3"/>
      <point x="426" y="51"/>
      <point x="426" y="157" type="curve" smooth="yes"/>
      <point x="426" y="323"/>
      <point x="122" y="252"/>
      <point x="122" y="403" type="curve" smooth="yes"/>
      <point x="122" y="491"/>
      <point x="204" y="543"/>
      <point x="312" y="543" type="curve" smooth="yes"/>
      <point x="371" y="543"/>
      <point x="425" y="526"/>
      <point x="465" y="495" type="curve"/>
      <point x="477" y="513" type="line"/>
      <point x="437" y="544"/>
      <point x="374" y="562"/>
      <point x="312" y="562" type="curve" smooth="yes"/>
      <point x="195" y="562"/>
      <point x="103" y="505"/>
      <point x="103" y="401" type="curve" smooth="yes"/>
      <point x="103" y="232"/>
      <point x="406" y="304"/>
      <point x="406" y="155" type="curve" smooth="yes"/>
      <point x="406" y="66"/>
      <point x="324" y="16"/>
      <point x="212" y="16" type="curve" smooth="yes"/>
      <point x="139" y="16"/>
      <point x="63" y="47"/>
      <point x="32" y="89" type="curve"/>
      <point x="18" y="75" type="line"/>
      <point x="49" y="31"/>
      <point x="131" y="-3"/>
    </contour>
  </outline>
</glyph>
<glyph name="schwa.sc.ss01" format="2">
  <advance width="665"/>
  <anchor x="281" y="0" name="bottom"/>
  <anchor x="391" y="559" name="top"/>
  <outline>
    <contour>
      <point x="296" y="-3" type="curve" smooth="yes"/>
      <point x="493" y="-3"/>
      <point x="618" y="155"/>
      <point x="618" y="335" type="curve" smooth="yes"/>
      <point x="618" y="471"/>
      <point x="530" y="562"/>
      <point x="375" y="562" type="curve" smooth="yes"/>
      <point x="292" y="562"/>
      <point x="217" y="534"/>
      <point x="172" y="492" type="curve"/>
      <point x="183" y="477" type="line"/>
      <point x="228" y="518"/>
      <point x="293" y="543"/>
      <point x="373" y="543" type="curve" smooth="yes"/>
      <point x="519" y="543"/>
      <point x="599" y="459"/>
      <point x="599" y="335" type="curve" smooth="yes"/>
      <point x="599" y="163"/>
      <point x="478" y="16"/>
      <point x="298" y="16" type="curve" smooth="yes"/>
      <point x="184" y="16"/>
      <point x="105" y="70"/>
      <point x="82" y="156" type="curve"/>
      <point x="74" y="147" type="line"/>
      <point x="605" y="352" type="line"/>
      <point x="602" y="369" type="line"/>
      <point x="59" y="158" type="line"/>
      <point x="82" y="61"/>
      <point x="172" y="-3"/>
    </contour>
  </outline>
</glyph>
<glyph name="semisoftsign-cy.ss01" format="2">
  <advance width="589"/>
  <outline>
    <contour>
      <point x="52" y="417" type="line"/>
      <point x="392" y="417" type="line"/>
      <point x="396" y="436" type="line"/>
      <point x="56" y="436" type="line"/>
    </contour>
    <contour>
      <point x="291" y="-3" type="curve" smooth="yes"/>
      <point x="431" y="-3"/>
      <point x="533" y="87"/>
      <point x="533" y="193" type="curve" smooth="yes"/>
      <point x="533" y="282"/>
      <point x="467" y="333"/>
      <point x="358" y="333" type="curve" smooth="yes"/>
      <point x="274" y="333"/>
      <point x="203" y="303"/>
      <point x="158" y="249" type="curve"/>
      <point x="212" y="517" type="line"/>
      <point x="192" y="517" type="line"/>
      <point x="122" y="170" type="line" smooth="yes"/>
      <point x="101" y="64"/>
      <point x="169" y="-3"/>
    </contour>
    <contour>
      <point x="293" y="15" type="curve" smooth="yes"/>
      <point x="179" y="15"/>
      <point x="124" y="76"/>
      <point x="142" y="170" type="curve" smooth="yes"/>
      <point x="151" y="218" type="line"/>
      <point x="197" y="281"/>
      <point x="270" y="315"/>
      <point x="356" y="315" type="curve" smooth="yes"/>
      <point x="453" y="315"/>
      <point x="513" y="271"/>
      <point x="513" y="193" type="curve" smooth="yes"/>
      <point x="513" y="97"/>
      <point x="424" y="15"/>
    </contour>
  </outline>
</glyph>
<glyph name="slashlongcomb.case" format="2">
  <anchor x="427" y="350" name="_center"/>
  <outline>
    <contour>
      <point x="24" y="-70" type="line"/>
      <point x="49" y="-70" type="line"/>
      <point x="830" y="770" type="line"/>
      <point x="805" y="770" type="line"/>
    </contour>
  </outline>
</glyph>
<glyph name="slashlongcomb.sc" format="2">
  <anchor x="335" y="280" name="_center"/>
  <outline>
    <contour>
      <point x="9" y="-56" type="line"/>
      <point x="33" y="-56" type="line"/>
      <point x="661" y="616" type="line"/>
      <point x="637" y="616" type="line"/>
    </contour>
  </outline>
</glyph>
<glyph name="softsign-cy.ss01" format="2">
  <advance width="556"/>
  <outline>
    <contour>
      <point x="253" y="-3" type="curve" smooth="yes"/>
      <point x="394" y="-3"/>
      <point x="498" y="96"/>
      <point x="498" y="211" type="curve" smooth="yes"/>
      <point x="498" y="306"/>
      <point x="433" y="360"/>
      <point x="325" y="360" type="curve" smooth="yes"/>
      <point x="241" y="360"/>
      <point x="170" y="327"/>
      <point x="124" y="268" type="curve"/>
      <point x="174" y="517" type="line"/>
      <point x="154" y="517" type="line"/>
      <point x="87" y="183" type="line" smooth="yes"/>
      <point x="64" y="69"/>
      <point x="132" y="-3"/>
    </contour>
    <contour>
      <point x="255" y="16" type="curve" smooth="yes"/>
      <point x="141" y="16"/>
      <point x="88" y="83"/>
      <point x="107" y="184" type="curve" smooth="yes"/>
      <point x="117" y="236" type="line"/>
      <point x="164" y="304"/>
      <point x="237" y="341"/>
      <point x="323" y="341" type="curve" smooth="yes"/>
      <point x="419" y="341"/>
      <point x="478" y="295"/>
      <point x="478" y="208" type="curve" smooth="yes"/>
      <point x="478" y="107"/>
      <point x="387" y="16"/>
    </contour>
  </outline>
</glyph>
<glyph name="te-cy.loclSRB" format="2">
  <advance width="1060"/>
  <anchor x="891" y="0" name="bottomright"/>
  <outline>
    <contour>
      <point x="259" y="-3" type="curve" smooth="yes"/>
      <point x="366" y="-3"/>
      <point x="454" y="47"/>
      <point x="502" y="151" type="curve"/>
      <point x="495" y="153" type="line"/>
      <point x="496" y="59"/>
      <point x="554" y="-3"/>
      <point x="670" y="-3" type="curve" smooth="yes"/>
      <point x="776" y="-3"/>
      <point x="861" y="45"/>
      <point x="911" y="155" type="curve"/>
      <point x="901" y="150" type="line"/>
      <point x="871" y="0" type="line"/>
      <point x="891" y="0" type="line"/>
      <point x="994" y="517" type="line"/>
      <point x="974" y="517" type="line"/>
      <point x="917" y="230" type="line" smooth="yes"/>
      <point x="889" y="91"/>
      <point x="798" y="16"/>
      <point x="672" y="16" type="curve" smooth="yes"/>
      <point x="547" y="16"/>
      <point x="497" y="91"/>
      <point x="521" y="212" type="curve" smooth="yes"/>
      <point x="582" y="517" type="line"/>
      <point x="562" y="517" type="line"/>
      <point x="501" y="213" type="line" smooth="yes"/>
      <point x="475" y="84"/>
      <point x="381" y="16"/>
      <point x="260" y="16" type="curve" smooth="yes"/>
      <point x="135" y="16"/>
      <point x="85" y="91"/>
      <point x="109" y="212" type="curve" smooth="yes"/>
      <point x="170" y="517" type="line"/>
      <point x="150" y="517" type="line"/>
      <point x="89" y="212" type="line" smooth="yes"/>
      <point x="64" y="86"/>
      <point x="118" y="-3"/>
    </contour>
    <contour>
      <point x="354" y="652" type="line"/>
      <point x="898" y="652" type="line"/>
      <point x="906" y="672" type="line"/>
      <point x="362" y="672" type="line"/>
    </contour>
  </outline>
</glyph>
<glyph name="three.tf" format="2">
  <advance width="700"/>
  <outline>
    <contour>
      <point x="288" y="-3" type="curve" smooth="yes"/>
      <point x="461" y="-3"/>
      <point x="563" y="85"/>
      <point x="563" y="216" type="curve" smooth="yes"/>
      <point x="563" y="325"/>
      <point x="488" y="387"/>
      <point x="343" y="387" type="curve" smooth="yes"/>
      <point x="328" y="387" type="line"/>
      <point x="332" y="380" type="line"/>
      <point x="632" y="685" type="line"/>
      <point x="635" y="700" type="line"/>
      <point x="175" y="700" type="line"/>
      <point x="171" y="681" type="line"/>
      <point x="611" y="681" type="line"/>
      <point x="607" y="687" type="line"/>
      <point x="308" y="383" type="line"/>
      <point x="305" y="368" type="line"/>
      <point x="343" y="368" type="line" smooth="yes"/>
      <point x="479" y="368"/>
      <point x="543" y="314"/>
      <point x="543" y="216" type="curve" smooth="yes"/>
      <point x="543" y="96"/>
      <point x="452" y="16"/>
      <point x="289" y="16" type="curve" smooth="yes"/>
      <point x="169" y="16"/>
      <point x="96" y="56"/>
      <point x="65" y="109" type="curve"/>
      <point x="48" y="96" type="line"/>
      <point x="82" y="38"/>
      <point x="165" y="-3"/>
    </contour>
  </outline>
</glyph>
<glyph name="tildecomb.narrow" format="2">
  <anchor x="351" y="517" name="_top"/>
  <anchor x="378" y="650" name="top"/>
  <outline>
    <contour>
      <point x="430" y="619" type="curve" smooth="yes"/>
      <point x="468" y="619"/>
      <point x="493" y="653"/>
      <point x="499" y="703" type="curve"/>
      <point x="480" y="703" type="line"/>
      <point x="476" y="664"/>
      <point x="456" y="638"/>
      <point x="431" y="638" type="curve" smooth="yes"/>
      <point x="394" y="638"/>
      <point x="384" y="707"/>
      <point x="331" y="707" type="curve" smooth="yes"/>
      <point x="293" y="707"/>
      <point x="267" y="673"/>
      <point x="262" y="621" type="curve"/>
      <point x="281" y="621" type="line"/>
      <point x="285" y="662"/>
      <point x="304" y="688"/>
      <point x="329" y="688" type="curve" smooth="yes"/>
      <point x="366" y="688"/>
      <point x="377" y="619"/>
    </contour>
  </outline>
</glyph>
<glyph name="two.tf" format="2">
  <advance width="700"/>
  <outline>
    <contour>
      <point x="45" y="0" type="line"/>
      <point x="534" y="0" type="line"/>
      <point x="538" y="19" type="line"/>
      <point x="60" y="19" type="line"/>
      <point x="71" y="8" type="line"/>
      <point x="443" y="308" type="line" smooth="yes"/>
      <point x="562" y="404"/>
      <point x="606" y="474"/>
      <point x="606" y="548" type="curve" smooth="yes"/>
      <point x="606" y="642"/>
      <point x="532" y="703"/>
      <point x="396" y="703" type="curve" smooth="yes"/>
      <point x="298" y="703"/>
      <point x="208" y="671"/>
      <point x="152" y="613" type="curve"/>
      <point x="167" y="599" type="line"/>
      <point x="218" y="654"/>
      <point x="303" y="684"/>
      <point x="395" y="684" type="curve" smooth="yes"/>
      <point x="521" y="684"/>
      <point x="586" y="631"/>
      <point x="586" y="547" type="curve" smooth="yes"/>
      <point x="586" y="478"/>
      <point x="544" y="415"/>
      <point x="429" y="322" type="curve" smooth="yes"/>
      <point x="48" y="15" type="line"/>
    </contour>
  </outline>
</glyph>
<glyph name="u.sc.ss01" format="2">
  <advance width="678"/>
  <anchor x="283" y="0" name="bottom"/>
  <anchor x="503" y="0" name="ogonek"/>
  <anchor x="395" y="559" name="top"/>
  <anchor x="608" y="559" name="topright"/>
  <outline>
    <contour>
      <point x="284" y="-3" type="curve" smooth="yes"/>
      <point x="386" y="-3"/>
      <point x="468" y="42"/>
      <point x="515" y="138" type="curve"/>
      <point x="511" y="140" type="line"/>
      <point x="483" y="0" type="line"/>
      <point x="503" y="0" type="line"/>
      <point x="616" y="559" type="line"/>
      <point x="596" y="559" type="line"/>
      <point x="527" y="222" type="line" smooth="yes"/>
      <point x="498" y="82"/>
      <point x="408" y="17"/>
      <point x="288" y="17" type="curve" smooth="yes"/>
      <point x="162" y="17"/>
      <point x="104" y="89"/>
      <point x="132" y="232" type="curve" smooth="yes"/>
      <point x="197" y="559" type="line"/>
      <point x="177" y="559" type="line"/>
      <point x="111" y="231" type="line" smooth="yes"/>
      <point x="80" y="78"/>
      <point x="151" y="-3"/>
    </contour>
  </outline>
</glyph>
<glyph name="udieresis.sc.alt.BRACKET.133" format="2">
  <advance width="672"/>
  <outline>
    <contour>
      <point x="295" y="-3" type="curve" smooth="yes"/>
      <point x="432" y="-3"/>
      <point x="519" y="74"/>
      <point x="551" y="234" type="curve" smooth="yes"/>
      <point x="616" y="559" type="line"/>
      <point x="596" y="559" type="line"/>
      <point x="531" y="235" type="line" smooth="yes"/>
      <point x="501" y="87"/>
      <point x="423" y="17"/>
      <point x="296" y="17" type="curve" smooth="yes"/>
      <point x="163" y="17"/>
      <point x="103" y="95"/>
      <point x="131" y="236" type="curve" smooth="yes"/>
      <point x="196" y="559" type="line"/>
      <point x="176" y="559" type="line"/>
      <point x="111" y="235" type="line" smooth="yes"/>
      <point x="81" y="86"/>
      <point x="151" y="-3"/>
    </contour>
    <contour>
      <point x="308" y="510" type="curve" smooth="yes"/>
      <point x="323" y="510"/>
      <point x="335" y="523"/>
      <point x="335" y="538" type="curve" smooth="yes"/>
      <point x="335" y="551"/>
      <point x="323" y="562"/>
      <point x="310" y="562" type="curve" smooth="yes"/>
      <point x="295" y="562"/>
      <point x="283" y="549"/>
      <point x="283" y="534" type="curve" smooth="yes"/>
      <point x="283" y="521"/>
      <point x="295" y="510"/>
    </contour>
    <contour>
      <point x="472" y="510" type="curve" smooth="yes"/>
      <point x="487" y="510"/>
      <point x="499" y="523"/>
      <point x="499" y="538" type="curve" smooth="yes"/>
      <point x="499" y="551"/>
      <point x="487" y="562"/>
      <point x="474" y="562" type="curve" smooth="yes"/>
      <point x="459" y="562"/>
      <point x="447" y="549"/>
      <point x="447" y="534" type="curve" smooth="yes"/>
      <point x="447" y="521"/>
      <point x="459" y="510"/>
    </contour>
  </outline>
</glyph>
<glyph name="udieresis.sc.ss01.alt.BRACKET.133" format="2">
  <advance width="678"/>
  <outline>
    <contour>
      <point x="284" y="-3" type="curve" smooth="yes"/>
      <point x="386" y="-3"/>
      <point x="468" y="42"/>
      <point x="515" y="138" type="curve"/>
      <point x="511" y="140" type="line"/>
      <point x="483" y="0" type="line"/>
      <point x="503" y="0" type="line"/>
      <point x="616" y="559" type="line"/>
      <point x="596" y="559" type="line"/>
      <point x="527" y="222" type="line" smooth="yes"/>
      <point x="498" y="82"/>
      <point x="408" y="17"/>
      <point x="288" y="17" type="curve" smooth="yes"/>
      <point x="162" y="17"/>
      <point x="104" y="89"/>
      <point x="132" y="232" type="curve" smooth="yes"/>
      <point x="197" y="559" type="line"/>
      <point x="177" y="559" type="line"/>
      <point x="111" y="231" type="line" smooth="yes"/>
      <point x="80" y="78"/>
      <point x="151" y="-3"/>
    </contour>
    <contour>
      <point x="364" y="387" type="curve" smooth="yes"/>
      <point x="379" y="387"/>
      <point x="391" y="400"/>
      <point x="391" y="415" type="curve" smooth="yes"/>
      <point x="391" y="428"/>
      <point x="379" y="439"/>
      <point x="366" y="439" type="curve" smooth="yes"/>
      <point x="351" y="439"/>
      <point x="339" y="426"/>
      <point x="339" y="411" type="curve" smooth="yes"/>
      <point x="339" y="398"/>
      <point x="351" y="387"/>
    </contour>
    <contour>
      <point x="385" y="510" type="curve" smooth="yes"/>
      <point x="400" y="510"/>
      <point x="412" y="523"/>
      <point x="412" y="538" type="curve" smooth="yes"/>
      <point x="412" y="551"/>
      <point x="400" y="562"/>
      <point x="387" y="562" type="curve" smooth="yes"/>
      <point x="372" y="562"/>
      <point x="360" y="549"/>
      <point x="360" y="534" type="curve" smooth="yes"/>
      <point x="360" y="521"/>
      <point x="372" y="510"/>
    </contour>
  </outline>
</glyph>
<glyph name="uogonek.sc" format="2">
  <advance width="672"/>
  <anchor x="396" y="559" name="top"/>
  <outline>
    <contour>
      <point x="596" y="559" type="line"/>
      <point x="531" y="235" type="line" smooth="yes"/>
      <point x="501" y="87"/>
      <point x="423" y="17"/>
      <point x="296" y="17" type="curve" smooth="yes"/>
      <point x="163" y="17"/>
      <point x="103" y="95"/>
      <point x="131" y="236" type="curve" smooth="yes"/>
      <point x="196" y="559" type="line"/>
      <point x="176" y="559" type="line"/>
      <point x="111" y="235" type="line" smooth="yes"/>
      <point x="81" y="86"/>
      <point x="151" y="-3"/>
      <point x="295" y="-3" type="curve" smooth="yes"/>
      <point x="302" y="-3"/>
      <point x="311" y="-3"/>
      <point x="321" y="-2" type="curve"/>
      <point x="304" y="1" type="line"/>
      <point x="214" y="-42"/>
      <point x="176" y="-91"/>
      <point x="176" y="-144" type="curve" smooth="yes"/>
      <point x="176" y="-187"/>
      <point x="206" y="-213"/>
      <point x="252" y="-213" type="curve" smooth="yes"/>
      <point x="281" y="-213"/>
      <point x="309" y="-204"/>
      <point x="332" y="-186" type="curve"/>
      <point x="324" y="-169" type="line"/>
      <point x="304" y="-185"/>
      <point x="278" y="-194"/>
      <point x="253" y="-194" type="curve" smooth="yes"/>
      <point x="217" y="-194"/>
      <point x="196" y="-176"/>
      <point x="196" y="-142" type="curve" smooth="yes"/>
      <point x="196" y="-88"/>
      <point x="259" y="-24"/>
      <point x="377" y="8" type="curve" smooth="yes"/>
      <point x="461" y="31"/>
      <point x="525" y="102"/>
      <point x="551" y="234" type="curve" smooth="yes"/>
      <point x="616" y="559" type="line"/>
    </contour>
  </outline>
</glyph>
<glyph name="x.sc" format="2">
  <advance width="515"/>
  <outline>
    <contour>
      <point x="-28" y="0" type="line"/>
      <point x="-3" y="0" type="line"/>
      <point x="265" y="278" type="line"/>
      <point x="260" y="280" type="line"/>
      <point x="417" y="0" type="line"/>
      <point x="438" y="0" type="line"/>
      <point x="273" y="294" type="line"/>
      <point x="272" y="286" type="line"/>
      <point x="535" y="559" type="line"/>
      <point x="512" y="559" type="line"/>
      <point x="262" y="301" type="line"/>
      <point x="271" y="297" type="line"/>
      <point x="123" y="559" type="line"/>
      <point x="102" y="559" type="line"/>
      <point x="256" y="285" type="line"/>
      <point x="257" y="296" type="line"/>
    </contour>
  </outline>
</glyph>
<glyph name="yat-cy.ss01" format="2">
  <advance width="596"/>
  <outline>
    <contour>
      <point x="49" y="509" type="line"/>
      <point x="413" y="509" type="line"/>
      <point x="417" y="528" type="line"/>
      <point x="53" y="528" type="line"/>
    </contour>
    <contour>
      <point x="293" y="-3" type="curve" smooth="yes"/>
      <point x="434" y="-3"/>
      <point x="538" y="96"/>
      <point x="538" y="211" type="curve" smooth="yes"/>
      <point x="538" y="306"/>
      <point x="473" y="360"/>
      <point x="365" y="360" type="curve" smooth="yes"/>
      <point x="281" y="360"/>
      <point x="210" y="327"/>
      <point x="164" y="268" type="curve"/>
      <point x="259" y="742" type="line"/>
      <point x="239" y="742" type="line"/>
      <point x="127" y="183" type="line" smooth="yes"/>
      <point x="104" y="68"/>
      <point x="172" y="-3"/>
    </contour>
    <contour>
      <point x="295" y="16" type="curve" smooth="yes"/>
      <point x="180" y="16"/>
      <point x="128" y="83"/>
      <point x="147" y="184" type="curve" smooth="yes"/>
      <point x="157" y="236" type="line"/>
      <point x="204" y="304"/>
      <point x="277" y="341"/>
      <point x="363" y="341" type="curve" smooth="yes"/>
      <point x="459" y="341"/>
      <point x="518" y="295"/>
      <point x="518" y="211" type="curve" smooth="yes"/>
      <point x="518" y="106"/>
      <point x="427" y="16"/>
    </contour>
  </outline>
</glyph>
<glyph name="ze-cy.loclBGR" format="2">
  <advance width="471"/>
  <outline>
    <contour>
      <point x="108" y="-197" type="curve" smooth="yes"/>
      <point x="249" y="-197"/>
      <point x="355" y="-103"/>
      <point x="355" y="16" type="curve" smooth="yes"/>
      <point x="355" y="96"/>
      <point x="312" y="153"/>
      <point x="239" y="172" type="curve"/>
      <point x="238" y="168" type="line"/>
      <point x="332" y="191"/>
      <point x="396" y="269"/>
      <point x="396" y="359" type="curve" smooth="yes"/>
      <point x="396" y="455"/>
      <point x="324" y="520"/>
      <point x="214" y="520" type="curve" smooth="yes"/>
      <point x="164" y="520"/>
      <point x="111" y="506"/>
      <point x="49" y="476" type="curve"/>
      <point x="57" y="458" type="line"/>
      <point x="117" y="486"/>
      <point x="168" y="500"/>
      <point x="216" y="500" type="curve" smooth="yes"/>
      <point x="311" y="500"/>
      <point x="376" y="444"/>
      <point x="376" y="360" type="curve" smooth="yes"/>
      <point x="376" y="267"/>
      <point x="295" y="181"/>
      <point x="201" y="181" type="curve" smooth="yes"/>
      <point x="91" y="181" type="line"/>
      <point x="91" y="161" type="line"/>
      <point x="201" y="161" type="line" smooth="yes"/>
      <point x="279" y="161"/>
      <point x="335" y="99"/>
      <point x="335" y="14" type="curve" smooth="yes"/>
      <point x="335" y="-92"/>
      <point x="238" y="-177"/>
      <point x="109" y="-177" type="curve" smooth="yes"/>
      <point x="35" y="-177"/>
      <point x="-40" y="-149"/>
      <point x="-77" y="-108" type="curve"/>
      <point x="-91" y="-122" type="line"/>
      <point x="-51" y="-167"/>
      <point x="28" y="-197"/>
    </contour>
  </outline>
</glyph>
<glyph name="zero.osf" format="2">
  <advance width="670"/>
  <outline>
    <contour>
      <point x="304" y="-3" type="curve" smooth="yes"/>
      <point x="524" y="-3"/>
      <point x="623" y="193"/>
      <point x="623" y="363" type="curve" smooth="yes"/>
      <point x="623" y="514"/>
      <point x="526" y="603"/>
      <point x="382" y="603" type="curve" smooth="yes"/>
      <point x="162" y="603"/>
      <point x="63" y="407"/>
      <point x="63" y="237" type="curve" smooth="yes"/>
      <point x="63" y="86"/>
      <point x="161" y="-3"/>
    </contour>
    <contour>
      <point x="306" y="16" type="curve" smooth="yes"/>
      <point x="167" y="16"/>
      <point x="82" y="98"/>
      <point x="82" y="238" type="curve" smooth="yes"/>
      <point x="82" y="395"/>
      <point x="172" y="584"/>
      <point x="380" y="584" type="curve" smooth="yes"/>
      <point x="519" y="584"/>
      <point x="604" y="502"/>
      <point x="604" y="362" type="curve" smooth="yes"/>
      <point x="604" y="205"/>
      <point x="514" y="16"/>
    </contour>
  </outline>
</glyph>
